<?xml version="1.0" encoding="UTF-8" standalone="no"?>
<!-- Generator: Adobe Illustrator 16.0.0, SVG Export Plug-In . SVG Version: 6.00 Build 0)  -->

<svg
   xmlns:dc="http://purl.org/dc/elements/1.1/"
   xmlns:cc="http://creativecommons.org/ns#"
   xmlns:rdf="http://www.w3.org/1999/02/22-rdf-syntax-ns#"
   xmlns:svg="http://www.w3.org/2000/svg"
   xmlns="http://www.w3.org/2000/svg"
   xmlns:xlink="http://www.w3.org/1999/xlink"
   xmlns:sodipodi="http://sodipodi.sourceforge.net/DTD/sodipodi-0.dtd"
   xmlns:inkscape="http://www.inkscape.org/namespaces/inkscape"
   version="1.1"
   id="圖層_1"
   x="0px"
   y="0px"
   width="200"
   height="200"
   viewBox="0 0 200 200.00001"
   enable-background="new 0 0 595.276 836.22"
   xml:space="preserve"
   inkscape:version="0.48.4 r9939"
   sodipodi:docname="疾管署徽.svg"><metadata
   id="metadata561"><rdf:RDF><cc:Work
       rdf:about=""><dc:format>image/svg+xml</dc:format><dc:type
         rdf:resource="http://purl.org/dc/dcmitype/StillImage" /></cc:Work></rdf:RDF></metadata><defs
   id="defs559" /><sodipodi:namedview
   pagecolor="#ffffff"
   bordercolor="#666666"
   borderopacity="1"
   objecttolerance="10"
   gridtolerance="10"
   guidetolerance="10"
   inkscape:pageopacity="0"
   inkscape:pageshadow="2"
   inkscape:window-width="1408"
   inkscape:window-height="729"
   id="namedview557"
   showgrid="false"
   fit-margin-top="0"
   fit-margin-left="0"
   fit-margin-right="0"
   fit-margin-bottom="0"
   inkscape:zoom="0.79824547"
   inkscape:cx="174.38986"
   inkscape:cy="160.13325"
   inkscape:window-x="-8"
   inkscape:window-y="-8"
   inkscape:window-maximized="1"
   inkscape:current-layer="圖層_1" />


<g
   id="g33"
   transform="matrix(7.7211137,0,0,7.6976372,-288.17513,-5640.1281)">
	<defs
   id="defs35">
		<path
   id="SVGID_7_"
   d="m 37.323,745.7 c 0,7.175 5.817,12.991 12.991,12.991 7.176,0 12.993,-5.816 12.993,-12.991 0,-7.177 -5.817,-12.993 -12.993,-12.993 -7.174,0 -12.991,5.816 -12.991,12.993"
   inkscape:connector-curvature="0" />
	</defs>
	<clipPath
   id="SVGID_8_">
		<use
   xlink:href="#SVGID_7_"
   overflow="visible"
   id="use39"
   style="overflow:visible"
   x="0"
   y="0"
   width="595.276"
   height="836.21997" />
	</clipPath>
	<path
   clip-path="url(#SVGID_8_)"
   d="m 63.226,745.731 c 0,7.195 -5.827,13.022 -13.016,13.022 -7.188,0 -13.022,-5.827 -13.022,-13.022 0,-7.188 5.834,-13.022 13.022,-13.022 7.188,0 13.016,5.834 13.016,13.022"
   id="path41"
   inkscape:connector-curvature="0"
   style="fill:#00a23f" />
	<path
   clip-path="url(#SVGID_8_)"
   d="m 49.744,739.715 c -0.177,0.063 -0.403,0.126 -0.58,0.157 -0.031,0.007 -0.05,0.032 -0.063,0.051 -0.164,0.252 -0.239,0.436 -0.239,0.548 0,0.006 0,0.031 0.012,0.044 v 0.006 c 0,0.058 -0.037,0.164 -0.056,0.233 l -0.044,0.183 c -0.032,0.133 -0.303,0.655 -0.391,0.775 -0.101,0.139 -0.145,0.403 -0.145,0.466 -0.031,0.044 -0.372,0.592 -0.372,0.592 -0.006,0.008 -0.006,0.02 -0.006,0.032 0,0 -0.057,0.283 -0.069,0.328 -0.019,0.031 -0.271,0.359 -0.271,0.359 -0.013,0.019 -0.019,0.03 -0.019,0.05 0,0.013 0,0.024 0.006,0.024 0,0 0.044,0.253 0.057,0.297 -0.031,0.095 -0.12,0.422 -0.12,0.604 0,0.088 -0.271,0.536 -0.523,0.888 0,0.008 -0.012,0.02 -0.012,0.032 l -0.284,1.046 c -0.006,0.013 -0.006,0.02 -0.006,0.02 v 0.012 l 0.063,0.599 c 0,0 0.032,1.059 0.032,1.103 -0.032,0.051 -0.095,0.183 -0.095,0.314 0,0.184 0.227,0.304 0.378,0.372 l 0.164,0.063 c 0.063,0.013 0.227,0.068 0.252,0.101 0,0.183 0.031,0.529 0.132,0.775 0.095,0.226 0.529,0.806 0.555,0.838 0.006,0.018 0.031,0.031 0.063,0.044 0.132,0.006 0.51,0.082 0.674,0.214 0.075,0.075 0.176,0.113 0.283,0.146 0.214,0.063 0.435,0.132 0.624,0.484 v -0.353 c -0.189,-0.214 -0.397,-0.277 -0.555,-0.328 -0.088,-0.025 -0.176,-0.056 -0.22,-0.1 -0.208,-0.178 -0.611,-0.253 -0.737,-0.271 -0.132,-0.177 -0.429,-0.599 -0.504,-0.763 -0.076,-0.195 -0.107,-0.522 -0.107,-0.687 0,-0.188 -0.233,-0.252 -0.403,-0.296 l -0.133,-0.044 c -0.063,-0.045 -0.264,-0.133 -0.264,-0.196 0,-0.088 0.056,-0.194 0.075,-0.227 0.013,-0.025 0.025,-0.044 0.025,-0.056 l -0.031,-1.147 c 0,0 -0.057,-0.554 -0.069,-0.586 0.012,-0.031 0.277,-0.97 0.277,-1.014 0.138,-0.195 0.542,-0.781 0.542,-0.983 0,-0.138 0.088,-0.466 0.132,-0.573 v -0.031 -0.013 c 0,0 -0.044,-0.208 -0.057,-0.271 0.044,-0.069 0.252,-0.354 0.252,-0.354 0.013,-0.006 0.019,-0.019 0.019,-0.044 0,0 0.057,-0.29 0.069,-0.328 0.013,-0.03 0.36,-0.572 0.36,-0.572 0.012,-0.025 0.012,-0.031 0.018,-0.058 0.013,-0.106 0.044,-0.302 0.114,-0.39 0.094,-0.12 0.39,-0.674 0.422,-0.852 l 0.044,-0.176 c 0.031,-0.095 0.063,-0.194 0.063,-0.284 0,-0.019 -0.006,-0.044 -0.019,-0.074 v 0.012 c 0.013,-0.044 0.101,-0.22 0.195,-0.39 0.095,-0.025 0.296,-0.069 0.492,-0.14 v -0.211 z m 2.167,-0.945 -0.239,0.107 c -0.107,0.044 -0.221,0.101 -0.296,0.107 -0.019,0.013 -0.082,-0.031 -0.126,-0.075 -0.076,-0.063 -0.189,-0.164 -0.328,-0.108 -0.176,0.076 -0.731,0.567 -0.895,0.763 -0.044,0.051 -0.151,0.102 -0.283,0.151 v 0.214 c 0.183,-0.063 0.359,-0.145 0.435,-0.232 0.163,-0.195 0.699,-0.655 0.819,-0.699 0.018,-0.013 0.075,0.031 0.132,0.075 0.063,0.057 0.164,0.145 0.29,0.12 0.1,-0.02 0.22,-0.076 0.327,-0.14 l 0.208,-0.088 h 0.013 c 0,0.013 0.031,0.044 0.031,0.044 0.019,0.044 0.063,0.107 0.139,0.139 0.113,0.058 0.491,0.447 0.516,0.593 0.007,0 0.007,0.013 0.007,0.013 0,0.107 -0.183,0.479 -0.366,0.768 -0.012,0.014 -0.025,0.038 -0.025,0.058 0,0.013 0.013,0.013 0.013,0.019 0,0 0.252,0.964 0.271,1.04 -0.032,0.05 -0.107,0.183 -0.107,0.183 0,0.013 -0.013,0.024 -0.013,0.031 0,0.013 -0.013,0.069 -0.013,0.133 0,0.075 0.013,0.163 0.057,0.252 0.013,0.013 0.013,0.03 0.013,0.063 0,0.12 -0.076,0.34 -0.12,0.46 -0.025,0.088 -0.044,0.228 -0.057,0.378 -0.019,0.176 -0.044,0.372 -0.094,0.504 -0.07,0.177 -0.07,0.504 -0.082,0.787 l -0.019,0.334 c -0.032,0.24 -0.063,0.744 -0.063,0.958 0,0.189 -0.113,0.787 -0.158,0.995 0,0.013 -0.006,0.02 -0.006,0.02 0,0.013 0,0.013 0.006,0.013 0,0 0.057,0.466 0.057,0.51 -0.101,0.265 -0.227,0.567 -0.283,0.611 -0.095,0.101 -0.177,0.446 -0.208,0.63 -0.271,0.132 -0.29,0.522 -0.29,0.655 -0.221,0.195 -0.504,0.763 -0.536,0.951 l -0.025,0.107 c -0.044,0.22 -0.075,0.434 -0.075,0.598 0,0.102 0.012,0.189 0.044,0.24 0.056,0.107 0.1,0.775 0.119,1.134 l 0.026,0.447 c -0.057,0 -0.202,-0.057 -0.322,-0.132 -0.031,-0.02 -0.063,-0.02 -0.094,0 -0.032,0.012 -0.057,0.056 -0.057,0.088 0,0.025 -0.012,0.025 -0.012,0.031 -0.007,0.013 -0.038,0.025 -0.076,0.025 -0.032,-0.101 -0.151,-0.435 -0.17,-0.491 0.019,-0.063 0.063,-0.177 0.063,-0.31 0,-0.075 -0.019,-0.157 -0.057,-0.245 -0.075,-0.194 -0.164,-0.334 -0.258,-0.435 v 0.353 c 0.025,0.044 0.05,0.095 0.075,0.157 0.019,0.063 0.032,0.12 0.032,0.17 0,0.146 -0.051,0.246 -0.051,0.246 -0.012,0.019 -0.025,0.038 -0.025,0.051 0,0.013 0.013,0.025 0.013,0.031 l 0.214,0.611 c 0.013,0.031 0.044,0.057 0.088,0.068 0.025,0 0.189,0.007 0.284,-0.081 0.012,-0.007 0.025,-0.031 0.031,-0.038 0.133,0.075 0.328,0.151 0.441,0.075 0.032,-0.024 0.082,-0.068 0.082,-0.163 v -0.031 l -0.031,-0.441 c -0.044,-0.737 -0.063,-1.096 -0.139,-1.216 -0.012,-0.025 -0.025,-0.075 -0.025,-0.132 0,-0.178 0.057,-0.447 0.076,-0.567 l 0.025,-0.12 c 0.031,-0.164 0.34,-0.743 0.491,-0.85 0.032,-0.02 0.044,-0.058 0.044,-0.076 v -0.013 -0.031 c 0,-0.102 0.019,-0.436 0.214,-0.491 0.032,-0.019 0.07,-0.045 0.07,-0.089 0.044,-0.239 0.119,-0.529 0.164,-0.573 0.107,-0.101 0.289,-0.561 0.346,-0.699 v -0.031 -0.013 c 0,0 -0.057,-0.504 -0.063,-0.522 0.019,-0.102 0.158,-0.794 0.158,-1.027 0,-0.202 0.037,-0.706 0.056,-0.926 l 0.025,-0.359 c 0.007,-0.259 0.007,-0.573 0.076,-0.73 0.05,-0.151 0.076,-0.359 0.094,-0.542 0.026,-0.132 0.032,-0.271 0.057,-0.34 0.063,-0.195 0.12,-0.378 0.12,-0.523 0,-0.063 0,-0.106 -0.025,-0.164 -0.032,-0.044 -0.032,-0.094 -0.032,-0.15 v -0.089 c 0.025,-0.019 0.12,-0.195 0.12,-0.195 0.012,-0.013 0.012,-0.031 0.012,-0.05 v -0.025 c 0,0 -0.252,-0.958 -0.27,-1.033 0.107,-0.188 0.371,-0.637 0.371,-0.851 v -0.031 c -0.044,-0.233 -0.485,-0.668 -0.623,-0.744 -0.032,-0.012 -0.057,-0.044 -0.076,-0.075 -0.044,-0.062 -0.107,-0.157 -0.252,-0.125"
   id="path43"
   inkscape:connector-curvature="0"
   style="fill:#ffffff" />
	<path
   clip-path="url(#SVGID_8_)"
   d="m 50.04,749.271 c -0.032,-0.019 -0.063,-0.05 -0.089,-0.075 -0.34,-0.314 -0.522,-0.818 -0.579,-1.506 0.252,-0.019 0.472,-0.044 0.668,-0.095 v -1.379 c -0.164,0.113 -0.359,0.195 -0.58,0.245 0.101,-0.384 0.258,-0.687 0.504,-0.913 0.019,-0.025 0.044,-0.05 0.076,-0.069 v -1.449 c -0.517,0.157 -0.971,0.403 -1.355,0.731 -0.535,0.459 -0.882,1.058 -1.02,1.801 h -0.637 v -4.555 h 0.775 c 0.706,0 1.178,0.019 1.418,0.063 0.327,0.058 0.585,0.164 0.793,0.315 0.007,0.007 0.013,0.013 0.026,0.019 v -1.454 c -0.372,-0.082 -0.901,-0.12 -1.582,-0.12 h -3.162 v 6.898 h 2.287 c 0.069,0.945 0.428,1.707 1.09,2.274 0.396,0.334 0.85,0.58 1.367,0.736 v -1.467 z m 0,-1.675 c 0.012,-0.006 0.025,-0.006 0.044,-0.012 0.497,-0.132 0.901,-0.315 1.209,-0.556 0.403,-0.302 0.706,-0.705 0.914,-1.222 0.088,-0.195 0.151,-0.409 0.195,-0.655 0.101,0.044 0.208,0.102 0.296,0.158 0.328,0.208 0.529,0.485 0.643,0.851 h 1.701 c -0.132,-0.819 -0.485,-1.299 -0.876,-1.606 -0.466,-0.359 -1.046,-0.574 -1.72,-0.687 -0.031,-0.447 -0.119,-0.825 -0.252,-1.153 -0.195,-0.447 -0.466,-0.819 -0.825,-1.121 -0.353,-0.309 -0.788,-0.511 -1.285,-0.63 -0.019,-0.007 -0.032,-0.013 -0.044,-0.013 v 1.454 c 0.195,0.164 0.352,0.372 0.466,0.649 0.088,0.214 0.138,0.485 0.164,0.825 -0.221,0.038 -0.429,0.089 -0.63,0.151 v 1.449 c 0.163,-0.139 0.359,-0.252 0.573,-0.328 -0.032,0.146 -0.063,0.277 -0.107,0.385 -0.12,0.303 -0.265,0.535 -0.448,0.661 -0.006,0.007 -0.012,0.013 -0.018,0.02 v 1.38 z m 2.633,1.796 c -0.334,0.239 -0.731,0.359 -1.197,0.359 -0.58,0 -1.058,-0.157 -1.436,-0.479 v 1.468 c 0.441,0.133 0.926,0.202 1.455,0.202 0.926,0 1.688,-0.188 2.293,-0.548 0.599,-0.366 1.147,-1.008 1.248,-2.079 l -1.645,-0.019 c -0.151,0.498 -0.39,0.869 -0.718,1.096"
   id="path45"
   inkscape:connector-curvature="0"
   style="fill:#ffffff" />
	<path
   clip-path="url(#SVGID_8_)"
   d="m 62.728,748.063 -3.434,-5.928 -3.477,6.212 1.317,-0.051 c -1.046,2.821 -3.743,4.825 -6.924,4.825 -4.076,0 -7.384,-3.313 -7.384,-7.39 0,-4.077 3.308,-7.39 7.384,-7.39 2.148,0 4.089,0.92 5.43,2.388 h 4.599 c -1.839,-3.679 -5.625,-6.212 -10.029,-6.212 -6.187,0 -11.214,5.015 -11.214,11.214 0,6.199 5.027,11.214 11.214,11.214 5.368,0 9.859,-3.773 10.956,-8.813 l 1.562,-0.069 z"
   id="path47"
   inkscape:connector-curvature="0"
   style="fill:#ffffff" />
	<polygon
   clip-path="url(#SVGID_8_)"
   points="59.288,742.097 59.282,742.097 59.282,742.103 59.275,742.103 59.27,742.103 59.27,742.109 59.263,742.109 59.263,742.115 59.257,742.115 59.257,742.121 59.257,742.128 59.257,742.134 59.257,742.141 59.257,742.147 59.257,742.153 59.263,742.153 59.257,742.115 59.263,742.153 62.69,748.081 62.76,748.043 59.326,742.115 59.257,742.115 59.326,742.115 59.32,742.109 59.313,742.103 59.307,742.103 59.307,742.097 59.301,742.097 59.294,742.097 "
   id="polygon49"
   style="fill:#ffffff" />
	<polygon
   clip-path="url(#SVGID_8_)"
   points="55.785,748.364 55.785,748.371 55.792,748.378 55.798,748.378 55.798,748.384 55.804,748.384 55.811,748.384 55.817,748.384 55.823,748.384 55.83,748.384 55.836,748.384 55.842,748.378 55.848,748.371 55.848,748.364 55.817,748.384 55.848,748.364 59.326,742.152 59.257,742.114 55.785,748.327 55.817,748.384 55.785,748.327 55.779,748.334 55.779,748.34 55.779,748.346 55.779,748.352 55.779,748.358 55.779,748.364 "
   id="polygon51"
   style="fill:#ffffff" />
	<polygon
   clip-path="url(#SVGID_8_)"
   points="53.543,752.372 53.795,752.239 54.034,752.102 54.267,751.956 54.5,751.798 54.727,751.634 54.935,751.458 55.143,751.275 55.351,751.086 55.546,750.892 55.735,750.689 55.918,750.476 56.088,750.261 56.258,750.041 56.416,749.808 56.56,749.574 56.699,749.329 56.831,749.083 56.957,748.831 57.071,748.573 57.172,748.309 57.102,748.276 56.995,748.541 56.888,748.793 56.762,749.045 56.636,749.291 56.497,749.53 56.346,749.763 56.195,749.99 56.031,750.217 55.855,750.431 55.678,750.639 55.489,750.841 55.294,751.03 55.093,751.219 54.891,751.401 54.677,751.571 54.456,751.735 54.229,751.886 53.996,752.038 53.757,752.176 53.511,752.302 53.259,752.422 53.001,752.535 52.743,752.636 52.478,752.725 52.207,752.806 51.936,752.882 51.659,752.939 51.376,752.989 51.086,753.027 50.802,753.059 50.506,753.077 50.21,753.083 50.204,753.083 50.197,753.083 50.191,753.083 50.191,753.09 50.185,753.09 50.185,753.096 50.179,753.096 50.179,753.103 50.179,753.109 50.172,753.109 50.172,753.115 50.172,753.121 50.172,753.128 50.172,753.134 50.179,753.134 50.179,753.14 50.179,753.146 50.185,753.146 50.191,753.153 50.197,753.153 50.197,753.159 50.204,753.159 50.21,753.159 50.21,753.159 50.512,753.153 50.809,753.134 51.098,753.109 51.388,753.065 51.672,753.014 51.955,752.951 52.232,752.882 52.503,752.8 52.768,752.705 53.032,752.605 53.291,752.491 "
   id="polygon53"
   style="fill:#ffffff" />
	<polygon
   clip-path="url(#SVGID_8_)"
   points="44.055,749.884 44.262,750.173 44.483,750.456 44.716,750.722 44.962,750.979 45.22,751.226 45.491,751.465 45.768,751.685 46.064,751.887 46.36,752.081 46.675,752.265 46.997,752.429 47.324,752.573 47.658,752.705 48.005,752.825 48.358,752.927 48.717,753.008 49.082,753.07 49.454,753.121 49.832,753.146 50.21,753.159 50.21,753.083 49.832,753.07 49.46,753.046 49.095,752.995 48.729,752.933 48.376,752.851 48.03,752.749 47.69,752.637 47.356,752.504 47.028,752.359 46.713,752.195 46.404,752.019 46.102,751.823 45.819,751.622 45.541,751.401 45.27,751.168 45.018,750.929 44.773,750.671 44.54,750.406 44.326,750.129 44.118,749.84 43.929,749.542 43.752,749.234 43.588,748.919 43.443,748.592 43.311,748.258 43.192,747.917 43.091,747.564 43.009,747.212 42.946,746.853 42.902,746.481 42.87,746.109 42.864,745.731 42.864,745.726 42.858,745.719 42.858,745.713 42.858,745.706 42.851,745.706 42.845,745.699 42.839,745.699 42.839,745.693 42.832,745.693 42.826,745.693 42.82,745.693 42.813,745.693 42.807,745.693 42.807,745.699 42.801,745.699 42.795,745.706 42.788,745.713 42.788,745.719 42.788,745.726 42.782,745.726 42.782,745.731 42.782,745.731 42.795,746.115 42.826,746.487 42.87,746.859 42.933,747.225 43.021,747.583 43.122,747.937 43.236,748.282 43.368,748.623 43.519,748.95 43.683,749.272 43.859,749.58 "
   id="polygon55"
   style="fill:#ffffff" />
	<polygon
   clip-path="url(#SVGID_8_)"
   points="46.065,739.577 45.769,739.784 45.491,740.005 45.22,740.237 44.962,740.483 44.716,740.742 44.483,741.013 44.263,741.29 44.055,741.58 43.86,741.882 43.683,742.196 43.519,742.512 43.368,742.846 43.236,743.18 43.123,743.526 43.022,743.879 42.934,744.238 42.871,744.604 42.826,744.976 42.795,745.354 42.782,745.731 42.864,745.731 42.871,745.354 42.902,744.981 42.946,744.617 43.009,744.251 43.091,743.897 43.192,743.552 43.312,743.205 43.444,742.871 43.589,742.55 43.753,742.229 43.929,741.926 44.118,741.624 44.326,741.334 44.54,741.057 44.773,740.792 45.019,740.54 45.271,740.295 45.542,740.062 45.819,739.848 46.102,739.64 46.405,739.451 46.714,739.268 47.029,739.109 47.356,738.959 47.69,738.827 48.03,738.714 48.377,738.612 48.73,738.53 49.095,738.468 49.46,738.424 49.832,738.392 50.21,738.386 50.216,738.386 50.223,738.38 50.229,738.38 50.235,738.38 50.235,738.373 50.242,738.373 50.242,738.367 50.248,738.367 50.248,738.36 50.248,738.354 50.248,738.348 50.248,738.342 50.248,738.335 50.248,738.329 50.248,738.322 50.242,738.322 50.242,738.316 50.235,738.316 50.235,738.31 50.229,738.31 50.223,738.31 50.223,738.304 50.216,738.304 50.21,738.304 50.21,738.304 49.832,738.316 49.454,738.342 49.082,738.392 48.717,738.455 48.358,738.537 48.005,738.638 47.659,738.758 47.325,738.89 46.997,739.041 46.676,739.205 46.361,739.381 "
   id="polygon57"
   style="fill:#ffffff" />
	<polygon
   clip-path="url(#SVGID_8_)"
   points="53.92,739.292 53.756,739.204 53.586,739.116 53.417,739.028 53.247,738.952 53.07,738.877 52.894,738.802 52.711,738.738 52.528,738.676 52.345,738.618 52.163,738.563 51.974,738.518 51.784,738.474 51.595,738.437 51.4,738.398 51.206,738.373 51.01,738.348 50.814,738.328 50.613,738.316 50.412,738.311 50.209,738.304 50.209,738.386 50.412,738.386 50.606,738.393 50.809,738.404 51.003,738.424 51.199,738.448 51.388,738.474 51.577,738.512 51.767,738.55 51.955,738.594 52.144,738.638 52.326,738.688 52.509,738.751 52.686,738.808 52.862,738.877 53.039,738.946 53.215,739.022 53.385,739.098 53.555,739.186 53.719,739.274 53.882,739.362 54.041,739.456 54.197,739.558 54.355,739.658 54.506,739.766 54.657,739.879 54.802,739.992 54.941,740.111 55.086,740.231 55.218,740.357 55.357,740.489 55.489,740.622 55.615,740.755 55.641,740.768 55.615,740.755 55.615,740.761 55.622,740.761 55.627,740.768 55.634,740.768 55.641,740.768 55.646,740.768 55.653,740.768 55.659,740.768 55.666,740.761 55.672,740.761 55.672,740.755 55.678,740.748 55.678,740.741 55.685,740.735 55.685,740.729 55.678,740.723 55.678,740.717 55.678,740.71 55.672,740.71 55.672,740.704 55.641,740.691 55.672,740.704 55.54,740.565 55.407,740.434 55.275,740.301 55.136,740.175 54.991,740.056 54.854,739.936 54.708,739.815 54.556,739.708 54.399,739.596 54.241,739.494 54.084,739.394 "
   id="polygon59"
   style="fill:#ffffff" />
	<polygon
   clip-path="url(#SVGID_8_)"
   points="60.277,740.754 60.277,740.748 60.277,740.741 60.277,740.735 60.277,740.729 60.277,740.724 60.277,740.717 60.277,740.71 60.271,740.704 60.264,740.704 60.264,740.697 60.258,740.697 60.252,740.691 60.245,740.691 60.239,740.691 60.277,740.71 60.239,740.691 55.64,740.691 55.64,740.768 60.239,740.768 60.277,740.71 60.239,740.768 60.245,740.768 60.252,740.768 60.258,740.768 60.264,740.768 60.264,740.761 60.271,740.754 "
   id="polygon61"
   style="fill:#ffffff" />
	<polygon
   clip-path="url(#SVGID_8_)"
   points="54.822,735.55 55.162,735.714 55.502,735.892 55.836,736.08 56.164,736.275 56.485,736.483 56.794,736.703 57.096,736.937 57.392,737.176 57.682,737.429 57.959,737.687 58.23,737.957 58.488,738.234 58.74,738.519 58.98,738.814 59.206,739.116 59.433,739.425 59.641,739.746 59.843,740.074 60.032,740.408 60.208,740.748 60.277,740.71 60.095,740.37 59.906,740.036 59.704,739.708 59.496,739.388 59.269,739.072 59.036,738.764 58.797,738.467 58.545,738.177 58.28,737.9 58.009,737.629 57.732,737.371 57.442,737.119 57.146,736.873 56.838,736.641 56.529,736.42 56.201,736.212 55.874,736.01 55.54,735.821 55.193,735.646 54.853,735.481 54.494,735.324 54.135,735.18 53.763,735.054 53.392,734.934 53.007,734.832 52.623,734.738 52.232,734.662 51.835,734.6 51.439,734.549 51.035,734.511 50.626,734.486 50.21,734.479 50.204,734.479 50.197,734.479 50.197,734.486 50.191,734.486 50.185,734.492 50.179,734.498 50.179,734.505 50.172,734.511 50.172,734.518 50.172,734.524 50.172,734.53 50.179,734.536 50.179,734.542 50.185,734.549 50.191,734.549 50.191,734.556 50.197,734.556 50.204,734.556 50.21,734.556 50.21,734.556 50.62,734.568 51.029,734.586 51.426,734.624 51.829,734.675 52.22,734.738 52.604,734.813 52.988,734.908 53.366,735.009 53.738,735.122 54.103,735.254 54.469,735.394 "
   id="polygon63"
   style="fill:#ffffff" />
	<polygon
   clip-path="url(#SVGID_8_)"
   points="40.949,739.481 41.258,739.04 41.591,738.618 41.944,738.216 42.31,737.824 42.7,737.459 43.103,737.106 43.526,736.772 43.967,736.465 44.42,736.175 44.886,735.903 45.371,735.657 45.863,735.438 46.373,735.235 46.89,735.06 47.419,734.908 47.961,734.782 48.509,734.688 49.07,734.618 49.637,734.574 50.21,734.556 50.21,734.479 49.63,734.498 49.063,734.536 48.496,734.611 47.948,734.706 47.4,734.832 46.865,734.983 46.342,735.16 45.831,735.361 45.334,735.589 44.849,735.834 44.376,736.105 43.922,736.401 43.481,736.717 43.059,737.051 42.65,737.402 42.259,737.774 41.888,738.165 41.528,738.574 41.195,738.996 40.886,739.438 40.59,739.897 40.319,740.363 40.073,740.849 39.846,741.347 39.645,741.863 39.468,742.387 39.317,742.915 39.191,743.464 39.09,744.018 39.021,744.578 38.977,745.151 38.958,745.731 38.958,745.737 38.958,745.744 38.964,745.744 38.964,745.75 38.964,745.757 38.971,745.757 38.971,745.763 38.977,745.763 38.983,745.77 38.99,745.77 38.996,745.77 39.002,745.77 39.009,745.77 39.015,745.77 39.021,745.763 39.027,745.763 39.027,745.757 39.034,745.757 39.034,745.75 39.034,745.744 39.04,745.737 39.04,745.731 39.04,745.731 39.053,745.158 39.097,744.592 39.166,744.03 39.267,743.477 39.386,742.935 39.538,742.405 39.714,741.889 39.916,741.379 40.142,740.887 40.388,740.401 40.659,739.936 "
   id="polygon65"
   style="fill:#ffffff" />
	<polygon
   clip-path="url(#SVGID_8_)"
   points="43.967,754.999 43.526,754.689 43.104,754.356 42.7,754.004 42.31,753.638 41.944,753.248 41.592,752.844 41.258,752.422 40.949,751.98 40.659,751.527 40.388,751.062 40.143,750.583 39.916,750.085 39.714,749.574 39.538,749.058 39.387,748.528 39.267,747.986 39.166,747.438 39.097,746.878 39.053,746.311 39.04,745.731 38.958,745.731 38.977,746.311 39.021,746.885 39.091,747.444 39.191,748 39.317,748.548 39.469,749.083 39.645,749.605 39.847,750.116 40.073,750.613 40.319,751.099 40.59,751.571 40.886,752.025 41.195,752.466 41.529,752.895 41.888,753.298 42.259,753.688 42.65,754.066 43.06,754.42 43.482,754.753 43.923,755.062 44.376,755.357 44.849,755.629 45.334,755.875 45.832,756.102 46.342,756.303 46.865,756.479 47.4,756.631 47.948,756.757 48.496,756.857 49.063,756.927 49.63,756.971 50.21,756.983 50.216,756.983 50.223,756.983 50.229,756.983 50.235,756.977 50.242,756.971 50.248,756.965 50.248,756.958 50.248,756.951 50.248,756.945 50.248,756.938 50.248,756.933 50.248,756.927 50.242,756.921 50.235,756.914 50.229,756.907 50.223,756.907 50.216,756.907 50.21,756.907 50.21,756.907 49.637,756.889 49.07,756.851 48.509,756.775 47.961,756.681 47.419,756.555 46.89,756.403 46.373,756.228 45.863,756.031 45.372,755.806 44.887,755.56 44.42,755.289 "
   id="polygon67"
   style="fill:#ffffff" />
	<polygon
   clip-path="url(#SVGID_8_)"
   points="58.602,753.109 58.287,753.455 57.958,753.783 57.619,754.098 57.266,754.4 56.895,754.684 56.517,754.955 56.125,755.213 55.723,755.452 55.313,755.673 54.897,755.881 54.462,756.07 54.021,756.24 53.574,756.391 53.114,756.522 52.647,756.643 52.175,756.738 51.69,756.807 51.206,756.864 50.713,756.895 50.209,756.908 50.209,756.983 50.713,756.971 51.211,756.938 51.703,756.889 52.188,756.813 52.667,756.719 53.132,756.599 53.592,756.467 54.046,756.314 54.494,756.139 54.929,755.95 55.351,755.742 55.767,755.521 56.169,755.276 56.561,755.024 56.944,754.747 57.31,754.457 57.669,754.155 58.016,753.84 58.343,753.506 58.659,753.159 58.96,752.806 59.25,752.435 59.521,752.05 59.779,751.653 60.019,751.25 60.239,750.834 60.447,750.406 60.637,749.971 60.807,749.524 60.958,749.07 61.089,748.611 61.204,748.138 61.171,748.17 61.204,748.138 61.204,748.132 61.204,748.125 61.204,748.119 61.204,748.113 61.197,748.106 61.197,748.1 61.19,748.1 61.19,748.094 61.185,748.094 61.179,748.094 61.171,748.094 61.166,748.094 61.16,748.094 61.152,748.094 61.146,748.094 61.146,748.1 61.141,748.1 61.134,748.106 61.134,748.113 61.134,748.119 61.127,748.119 61.166,748.094 61.127,748.119 61.015,748.592 60.889,749.052 60.737,749.499 60.567,749.939 60.378,750.375 60.17,750.797 59.95,751.212 59.71,751.616 59.458,752.006 59.188,752.384 58.903,752.756 "
   id="polygon69"
   style="fill:#ffffff" />
	<polygon
   clip-path="url(#SVGID_8_)"
   points="57.171,748.314 57.171,748.309 57.171,748.302 57.171,748.295 57.171,748.289 57.171,748.283 57.171,748.276 57.166,748.271 57.166,748.264 57.158,748.264 57.158,748.258 57.152,748.258 57.146,748.258 57.14,748.251 57.133,748.251 57.171,748.309 57.133,748.251 55.817,748.309 55.817,748.384 57.14,748.333 57.171,748.309 57.14,748.333 57.146,748.333 57.152,748.327 57.158,748.327 57.158,748.321 57.166,748.321 57.166,748.314 "
   id="polygon71"
   style="fill:#ffffff" />
	<polygon
   clip-path="url(#SVGID_8_)"
   points="62.759,748.088 62.759,748.081 62.759,748.075 62.766,748.075 62.766,748.068 62.766,748.063 62.766,748.057 62.759,748.05 62.759,748.044 62.753,748.037 62.753,748.03 62.747,748.03 62.74,748.03 62.74,748.024 62.734,748.024 62.729,748.024 62.721,748.024 62.759,748.044 62.721,748.024 61.166,748.094 61.171,748.17 62.729,748.101 62.759,748.044 62.729,748.101 62.734,748.101 62.74,748.101 62.747,748.101 62.747,748.094 62.753,748.094 62.753,748.088 "
   id="polygon73"
   style="fill:#ffffff" />
	<path
   clip-path="url(#SVGID_8_)"
   d="m 41.188,748.377 -0.006,0.228 c -0.189,0.006 -0.34,-0.051 -0.46,-0.146 -0.12,-0.095 -0.208,-0.227 -0.246,-0.402 -0.044,-0.17 -0.044,-0.322 0,-0.448 0.051,-0.132 0.126,-0.239 0.258,-0.334 0.12,-0.081 0.252,-0.151 0.416,-0.182 0.164,-0.044 0.321,-0.044 0.473,-0.014 0.138,0.032 0.258,0.107 0.346,0.202 0.095,0.113 0.164,0.233 0.196,0.378 0.044,0.164 0.031,0.309 -0.026,0.441 -0.05,0.126 -0.157,0.239 -0.29,0.321 l -0.107,-0.202 c 0.107,-0.069 0.189,-0.145 0.221,-0.233 0.038,-0.088 0.044,-0.182 0.012,-0.283 -0.025,-0.132 -0.075,-0.227 -0.163,-0.303 -0.082,-0.069 -0.177,-0.107 -0.284,-0.119 -0.113,-0.013 -0.22,0.006 -0.321,0.025 -0.145,0.038 -0.265,0.082 -0.359,0.15 -0.088,0.069 -0.158,0.146 -0.183,0.24 -0.031,0.101 -0.038,0.201 -0.019,0.296 0.038,0.126 0.101,0.227 0.189,0.29 0.088,0.071 0.208,0.102 0.353,0.095"
   id="path75"
   inkscape:connector-curvature="0" />
	<path
   clip-path="url(#SVGID_8_)"
   d="m 41.447,749.676 0.044,0.22 c -0.126,0.006 -0.24,-0.019 -0.328,-0.075 -0.101,-0.063 -0.183,-0.151 -0.233,-0.284 -0.063,-0.176 -0.063,-0.32 0.013,-0.466 0.063,-0.126 0.182,-0.239 0.378,-0.309 0.151,-0.063 0.296,-0.069 0.428,-0.044 v 0.195 c -0.076,-0.02 -0.158,-0.02 -0.239,0.019 l 0.239,0.624 v 0.239 c -0.006,0.007 -0.013,0.007 -0.025,0.007 -0.007,0.012 -0.025,0.012 -0.051,0.024 l -0.321,-0.856 c -0.132,0.063 -0.208,0.132 -0.246,0.227 -0.044,0.088 -0.05,0.183 -0.012,0.277 0.025,0.069 0.075,0.12 0.126,0.157 0.056,0.038 0.132,0.051 0.227,0.045 m 0.302,-0.958 c 0.025,0.006 0.05,0.013 0.069,0.024 0.145,0.063 0.246,0.158 0.309,0.321 0.05,0.152 0.05,0.29 -0.013,0.429 -0.063,0.139 -0.182,0.239 -0.365,0.303 v -0.239 0.006 c 0.107,-0.038 0.164,-0.094 0.202,-0.151 0.044,-0.095 0.05,-0.188 0.019,-0.282 -0.038,-0.096 -0.095,-0.164 -0.177,-0.196 -0.019,-0.006 -0.031,-0.012 -0.044,-0.019 v -0.196 z"
   id="path77"
   inkscape:connector-curvature="0" />
	<path
   clip-path="url(#SVGID_8_)"
   d="m 41.289,750.317 1.084,-0.566 0.081,0.157 -0.151,0.089 c 0.158,0.006 0.284,0.094 0.353,0.245 0.038,0.063 0.063,0.133 0.069,0.195 0.007,0.069 -0.012,0.126 -0.031,0.17 -0.025,0.051 -0.057,0.095 -0.107,0.133 -0.032,0.024 -0.088,0.057 -0.17,0.106 l -0.668,0.34 -0.095,-0.182 0.656,-0.341 c 0.081,-0.037 0.132,-0.069 0.157,-0.107 0.032,-0.044 0.051,-0.075 0.044,-0.126 0.013,-0.044 -0.006,-0.094 -0.031,-0.145 -0.032,-0.081 -0.101,-0.132 -0.177,-0.163 -0.075,-0.032 -0.189,-0.014 -0.327,0.063 l -0.586,0.315 -0.101,-0.183 z"
   id="path79"
   inkscape:connector-curvature="0" />
	<path
   clip-path="url(#SVGID_8_)"
   d="m 42.335,751.754 -0.139,0.12 c -0.037,-0.038 -0.069,-0.076 -0.094,-0.114 -0.044,-0.063 -0.069,-0.126 -0.076,-0.162 0,-0.058 0.019,-0.096 0.038,-0.134 0.025,-0.03 0.088,-0.074 0.189,-0.145 l 0.586,-0.39 -0.082,-0.126 0.132,-0.082 0.095,0.126 0.252,-0.164 0.214,0.101 -0.359,0.233 0.113,0.17 -0.138,0.095 -0.107,-0.183 -0.605,0.39 c -0.044,0.032 -0.076,0.057 -0.088,0.076 -0.007,0.013 -0.019,0.038 -0.013,0.057 0,0.012 0.013,0.038 0.025,0.063 0.013,0.019 0.032,0.05 0.057,0.069"
   id="path81"
   inkscape:connector-curvature="0" />
	<path
   clip-path="url(#SVGID_8_)"
   d="m 43.135,752.46 0.12,0.189 c -0.12,0.05 -0.239,0.063 -0.34,0.038 -0.107,-0.038 -0.221,-0.102 -0.303,-0.208 -0.113,-0.14 -0.151,-0.284 -0.132,-0.436 0.019,-0.158 0.107,-0.29 0.252,-0.416 0.158,-0.126 0.321,-0.188 0.473,-0.176 0.019,0 0.031,0 0.05,0.006 v 0.195 c -0.006,-0.006 -0.013,-0.006 -0.019,-0.006 -0.082,-0.006 -0.176,0.013 -0.264,0.082 l 0.283,0.346 v 0.278 l -0.422,-0.53 c -0.101,0.089 -0.158,0.188 -0.17,0.284 -0.006,0.094 0.012,0.188 0.082,0.264 0.044,0.063 0.1,0.101 0.164,0.114 0.074,0.02 0.144,10e-4 0.226,-0.024 m 0.119,-1.002 c 0.139,0.02 0.246,0.094 0.34,0.208 0.101,0.126 0.145,0.271 0.126,0.422 -0.025,0.146 -0.119,0.277 -0.264,0.416 -0.013,0 -0.032,0.013 -0.051,0.031 l -0.151,-0.182 v -0.278 l 0.151,0.177 c 0.07,-0.063 0.114,-0.133 0.133,-0.208 0.012,-0.095 -0.007,-0.188 -0.07,-0.265 -0.056,-0.075 -0.126,-0.113 -0.214,-0.126 v -0.195 z"
   id="path83"
   inkscape:connector-curvature="0" />
	<path
   clip-path="url(#SVGID_8_)"
   d="m 43.191,753.096 0.85,-0.876 0.133,0.14 -0.126,0.12 c 0.094,-0.026 0.164,-0.032 0.208,-0.026 0.056,0.007 0.094,0.026 0.132,0.07 0.044,0.044 0.082,0.106 0.094,0.188 L 44.3,752.8 c -0.013,-0.063 -0.038,-0.101 -0.07,-0.145 -0.037,-0.025 -0.075,-0.044 -0.119,-0.05 -0.044,0 -0.082,0.006 -0.133,0.024 -0.063,0.038 -0.132,0.095 -0.189,0.151 l -0.453,0.46 -0.145,-0.144 z"
   id="path85"
   inkscape:connector-curvature="0" />
	<path
   clip-path="url(#SVGID_8_)"
   d="m 43.954,753.336 0.183,0.101 c -0.038,0.069 -0.051,0.145 -0.038,0.201 0.013,0.076 0.063,0.133 0.126,0.196 0.082,0.056 0.145,0.081 0.208,0.074 0.063,0 0.101,-0.019 0.138,-0.063 0.032,-0.044 0.038,-0.082 0.013,-0.126 0,-0.031 -0.044,-0.088 -0.113,-0.189 -0.107,-0.119 -0.164,-0.208 -0.189,-0.271 -0.032,-0.05 -0.051,-0.113 -0.032,-0.163 -0.006,-0.063 0.025,-0.12 0.063,-0.164 0.025,-0.044 0.069,-0.076 0.12,-0.088 0.05,-0.026 0.088,-0.038 0.145,-0.032 0.037,-0.006 0.094,0 0.145,0.032 0.056,0.012 0.1,0.044 0.151,0.081 0.082,0.057 0.138,0.127 0.17,0.188 0.05,0.07 0.063,0.133 0.069,0.196 -0.006,0.05 -0.025,0.113 -0.063,0.183 l -0.17,-0.107 c 0.025,-0.05 0.032,-0.107 0.019,-0.157 -0.013,-0.051 -0.05,-0.114 -0.12,-0.158 -0.063,-0.063 -0.126,-0.088 -0.182,-0.081 -0.051,0 -0.095,0.013 -0.12,0.05 -0.013,0.02 -0.019,0.045 -0.019,0.075 -0.006,0.02 0.006,0.051 0.031,0.089 0.013,0.02 0.045,0.069 0.114,0.151 0.082,0.12 0.151,0.208 0.176,0.258 0.032,0.063 0.051,0.114 0.044,0.177 -0.006,0.051 -0.025,0.107 -0.075,0.171 -0.038,0.044 -0.095,0.094 -0.158,0.106 -0.069,0.025 -0.145,0.031 -0.233,0.02 -0.069,-0.025 -0.145,-0.063 -0.227,-0.12 -0.132,-0.102 -0.201,-0.195 -0.226,-0.303 -0.032,-0.1 -0.007,-0.208 0.05,-0.327"
   id="path87"
   inkscape:connector-curvature="0" />
	<path
   clip-path="url(#SVGID_8_)"
   d="m 45.403,754.747 0.479,-0.945 -0.177,-0.082 0.076,-0.145 0.164,0.081 0.063,-0.119 c 0.038,-0.075 0.063,-0.119 0.094,-0.151 0.051,-0.038 0.101,-0.056 0.164,-0.063 0.051,-0.012 0.126,0 0.202,0.052 0.056,0.024 0.107,0.05 0.164,0.1 l -0.101,0.146 c -0.044,-0.031 -0.082,-0.051 -0.114,-0.069 -0.05,-0.025 -0.094,-0.032 -0.138,-0.02 -0.032,0.014 -0.07,0.045 -0.095,0.12 l -0.056,0.102 0.214,0.1 -0.07,0.14 -0.22,-0.102 -0.466,0.945 -0.183,-0.09 z"
   id="path89"
   inkscape:connector-curvature="0" />
	<path
   clip-path="url(#SVGID_8_)"
   d="m 46.121,754.444 c 0.082,-0.215 0.202,-0.353 0.353,-0.416 0.063,-0.024 0.126,-0.037 0.189,-0.037 v 0.183 c -0.044,0.006 -0.082,0.019 -0.126,0.038 -0.088,0.05 -0.158,0.15 -0.208,0.302 -0.05,0.151 -0.069,0.264 -0.025,0.365 0.038,0.095 0.101,0.164 0.201,0.196 0.051,0.018 0.108,0.024 0.158,0.018 v 0.177 c -0.076,0 -0.145,-0.006 -0.221,-0.032 -0.163,-0.063 -0.264,-0.162 -0.327,-0.302 -0.063,-0.132 -0.063,-0.302 0.006,-0.492 m 0.542,-0.453 c 0.069,0 0.145,0.013 0.22,0.044 0.158,0.05 0.271,0.157 0.322,0.29 0.063,0.145 0.063,0.302 0,0.484 -0.051,0.146 -0.114,0.258 -0.196,0.328 -0.069,0.063 -0.157,0.1 -0.264,0.132 h -0.082 v -0.177 c 0.044,-0.006 0.082,-0.018 0.12,-0.05 0.094,-0.044 0.17,-0.146 0.22,-0.296 0.057,-0.14 0.057,-0.252 0.019,-0.359 -0.038,-0.088 -0.107,-0.158 -0.201,-0.195 -0.057,-0.019 -0.108,-0.025 -0.158,-0.019 v -0.182 z"
   id="path91"
   inkscape:connector-curvature="0" />
	<path
   clip-path="url(#SVGID_8_)"
   d="m 47.274,755.465 0.283,-1.184 0.183,0.037 -0.038,0.183 c 0.057,-0.069 0.114,-0.126 0.158,-0.138 0.05,-0.014 0.088,-0.02 0.145,-0.008 0.063,0.014 0.126,0.052 0.182,0.107 l -0.113,0.17 c -0.044,-0.031 -0.088,-0.056 -0.139,-0.075 -0.044,-0.006 -0.088,-0.006 -0.126,0.02 -0.044,0.012 -0.069,0.044 -0.1,0.088 -0.038,0.069 -0.063,0.145 -0.089,0.227 l -0.144,0.617 -0.202,-0.044 z"
   id="path93"
   inkscape:connector-curvature="0" />
	<path
   clip-path="url(#SVGID_8_)"
   d="m 48.773,755.755 0.082,-1.683 0.573,0.032 c 0.025,0 0.044,0.006 0.057,0.006 v 0.195 h -0.063 l -0.353,-0.025 -0.069,1.292 0.359,0.019 h 0.126 v 0.195 h -0.113 l -0.599,-0.031 z m 0.712,-1.645 c 0.107,0 0.189,0.013 0.246,0.038 0.094,0.025 0.182,0.069 0.245,0.132 0.082,0.076 0.139,0.176 0.177,0.302 0.044,0.108 0.05,0.246 0.05,0.392 -0.012,0.126 -0.031,0.246 -0.069,0.34 -0.038,0.101 -0.069,0.183 -0.12,0.24 -0.057,0.068 -0.107,0.112 -0.17,0.15 -0.057,0.025 -0.12,0.058 -0.202,0.063 -0.044,0.012 -0.094,0.019 -0.157,0.019 v -0.195 c 0.057,-0.007 0.094,-0.013 0.132,-0.019 0.07,-0.019 0.12,-0.045 0.164,-0.076 0.044,-0.057 0.095,-0.12 0.132,-0.208 0.032,-0.088 0.044,-0.2 0.057,-0.328 0.013,-0.17 -0.006,-0.302 -0.069,-0.402 -0.044,-0.102 -0.114,-0.17 -0.189,-0.208 -0.057,-0.025 -0.133,-0.037 -0.227,-0.044 v -0.196 z"
   id="path95"
   inkscape:connector-curvature="0" />
	<path
   clip-path="url(#SVGID_8_)"
   d="m 50.412,754.351 -0.007,-0.228 0.202,-0.006 0.006,0.233 h -0.201 z m 0.05,1.454 -0.044,-1.222 0.208,-0.007 0.044,1.216 -0.208,0.013 z"
   id="path97"
   inkscape:connector-curvature="0" />
	<path
   clip-path="url(#SVGID_8_)"
   d="m 50.877,755.434 0.195,-0.05 c 0.026,0.074 0.057,0.132 0.114,0.17 0.056,0.038 0.132,0.056 0.227,0.05 0.088,-0.02 0.163,-0.044 0.201,-0.088 0.038,-0.044 0.057,-0.088 0.051,-0.14 0,-0.05 -0.026,-0.082 -0.07,-0.101 -0.031,-0.018 -0.107,-0.031 -0.208,-0.05 -0.163,-0.02 -0.271,-0.044 -0.334,-0.058 -0.063,-0.03 -0.107,-0.056 -0.138,-0.106 -0.038,-0.05 -0.063,-0.102 -0.069,-0.164 0,-0.05 0.006,-0.094 0.025,-0.144 0.012,-0.058 0.044,-0.09 0.082,-0.134 0.031,-0.024 0.069,-0.05 0.132,-0.074 0.05,-0.025 0.101,-0.038 0.176,-0.045 0.082,-0.007 0.177,0 0.252,0.02 0.076,0.012 0.126,0.05 0.164,0.088 0.044,0.05 0.069,0.1 0.095,0.182 l -0.196,0.045 c -0.012,-0.057 -0.05,-0.101 -0.1,-0.139 -0.045,-0.024 -0.108,-0.032 -0.196,-0.024 -0.082,0.006 -0.151,0.03 -0.189,0.074 -0.031,0.032 -0.05,0.063 -0.05,0.107 0.006,0.032 0.019,0.051 0.038,0.07 0.012,0.019 0.044,0.036 0.075,0.05 0.025,0.006 0.088,0.013 0.196,0.038 0.144,0.019 0.252,0.03 0.308,0.05 0.063,0.026 0.114,0.057 0.151,0.095 0.032,0.05 0.057,0.102 0.063,0.176 0.019,0.07 0,0.133 -0.037,0.202 -0.026,0.063 -0.089,0.119 -0.158,0.157 -0.069,0.044 -0.151,0.063 -0.246,0.076 -0.157,0.012 -0.283,0 -0.371,-0.058 -0.087,-0.056 -0.157,-0.144 -0.183,-0.275"
   id="path99"
   inkscape:connector-curvature="0" />
	<path
   clip-path="url(#SVGID_8_)"
   d="m 52.547,755.541 c -0.082,-0.007 -0.164,-0.032 -0.233,-0.076 -0.132,-0.082 -0.227,-0.214 -0.283,-0.41 -0.045,-0.194 -0.032,-0.365 0.031,-0.491 0.076,-0.145 0.195,-0.232 0.359,-0.276 0.038,-0.013 0.082,-0.02 0.126,-0.02 v 0.17 c -0.031,0 -0.057,0.007 -0.088,0.014 -0.088,0.024 -0.157,0.075 -0.208,0.15 -0.031,0.088 -0.05,0.17 -0.031,0.283 l 0.327,-0.088 v 0.177 l -0.296,0.081 c 0.044,0.12 0.113,0.208 0.189,0.259 0.032,0.02 0.069,0.038 0.107,0.045 v 0.182 z m 0,-1.273 c 0.107,-0.006 0.208,0.02 0.303,0.069 0.126,0.089 0.22,0.227 0.271,0.422 0,0.013 0.006,0.026 0.018,0.051 l -0.592,0.164 v -0.177 l 0.328,-0.094 c -0.038,-0.102 -0.07,-0.158 -0.126,-0.196 -0.063,-0.05 -0.133,-0.069 -0.202,-0.069 v -0.17 z m 0.416,0.756 0.22,-0.025 c -0.006,0.126 -0.037,0.232 -0.113,0.321 -0.069,0.101 -0.17,0.157 -0.315,0.201 -0.069,0.02 -0.145,0.025 -0.208,0.02 v -0.183 c 0.057,0.012 0.114,0.012 0.164,0 0.082,-0.032 0.132,-0.063 0.183,-0.107 0.037,-0.057 0.063,-0.133 0.069,-0.227"
   id="path101"
   inkscape:connector-curvature="0" />
	<path
   clip-path="url(#SVGID_8_)"
   d="m 53.895,754.01 v -0.221 h -0.076 c -0.063,0.007 -0.144,0.031 -0.245,0.082 -0.095,0.037 -0.17,0.095 -0.233,0.151 -0.057,0.057 -0.095,0.12 -0.107,0.189 -0.019,0.063 -0.013,0.145 0,0.227 l 0.195,-0.057 c -0.013,-0.089 -0.006,-0.151 0.019,-0.208 0.025,-0.058 0.088,-0.102 0.176,-0.14 0.095,-0.05 0.177,-0.056 0.24,-0.037 0.012,0.008 0.018,0.008 0.031,0.014 m 0,1.114 c -0.094,0.026 -0.189,0.032 -0.264,0.014 -0.089,-0.032 -0.152,-0.088 -0.202,-0.176 -0.025,-0.063 -0.025,-0.114 -0.032,-0.178 0.007,-0.05 0.026,-0.106 0.051,-0.15 0.031,-0.044 0.069,-0.088 0.107,-0.12 0.031,-0.025 0.082,-0.063 0.164,-0.107 0.063,-0.044 0.126,-0.088 0.176,-0.126 v 0.208 c -0.025,0.02 -0.057,0.038 -0.088,0.058 -0.069,0.05 -0.12,0.081 -0.145,0.112 -0.031,0.025 -0.038,0.069 -0.05,0.102 -0.007,0.03 -0.007,0.063 0.019,0.094 0.012,0.051 0.056,0.089 0.113,0.108 0.044,0.012 0.094,0.006 0.151,-0.02 v 0.181 z m 0.397,-0.384 c -0.044,0.088 -0.082,0.164 -0.139,0.222 -0.063,0.056 -0.119,0.1 -0.189,0.138 -0.025,0.013 -0.044,0.019 -0.069,0.024 v -0.182 c 0.013,-0.007 0.032,-0.013 0.044,-0.019 0.076,-0.025 0.132,-0.07 0.17,-0.14 0.038,-0.05 0.063,-0.12 0.07,-0.183 0,-0.05 -0.019,-0.113 -0.057,-0.201 l -0.032,-0.063 c -0.05,0.044 -0.107,0.094 -0.195,0.15 v -0.208 c 0.05,-0.031 0.095,-0.068 0.132,-0.094 -0.012,-0.032 -0.025,-0.044 -0.025,-0.051 -0.031,-0.057 -0.069,-0.102 -0.107,-0.126 v -0.221 c 0.038,0.007 0.076,0.013 0.095,0.031 0.044,0.02 0.088,0.044 0.119,0.095 0.025,0.031 0.051,0.095 0.088,0.177 l 0.12,0.252 c 0.076,0.17 0.139,0.271 0.158,0.32 0.037,0.045 0.069,0.082 0.113,0.108 l -0.189,0.088 c -0.044,-0.022 -0.082,-0.067 -0.107,-0.117"
   id="path103"
   inkscape:connector-curvature="0" />
	<path
   clip-path="url(#SVGID_8_)"
   d="m 54.62,754.331 0.158,-0.139 c 0.056,0.063 0.113,0.101 0.182,0.107 0.063,0.006 0.133,-0.019 0.214,-0.07 0.082,-0.056 0.126,-0.101 0.145,-0.17 0.019,-0.05 0.013,-0.101 -0.019,-0.145 -0.025,-0.038 -0.069,-0.056 -0.113,-0.063 -0.038,0 -0.101,0.02 -0.214,0.058 -0.139,0.05 -0.246,0.094 -0.309,0.094 -0.063,0.019 -0.126,0.013 -0.17,-0.018 -0.057,-0.026 -0.101,-0.064 -0.132,-0.114 -0.025,-0.044 -0.051,-0.094 -0.057,-0.146 0,-0.05 0.006,-0.106 0.025,-0.15 0.019,-0.038 0.032,-0.082 0.076,-0.126 0.038,-0.044 0.075,-0.082 0.138,-0.12 0.076,-0.057 0.152,-0.094 0.234,-0.107 0.069,-0.019 0.132,-0.012 0.182,0.007 0.051,0.019 0.107,0.057 0.164,0.113 l -0.157,0.139 c -0.032,-0.051 -0.082,-0.069 -0.139,-0.075 -0.05,-0.006 -0.114,0.006 -0.183,0.057 -0.082,0.056 -0.126,0.1 -0.145,0.157 -0.019,0.044 -0.019,0.082 0.019,0.126 0.013,0.019 0.032,0.038 0.057,0.044 0.031,0.013 0.063,0.007 0.094,-0.006 0.019,0 0.082,-0.014 0.183,-0.05 0.139,-0.046 0.24,-0.082 0.303,-0.09 0.063,-0.012 0.113,-0.006 0.17,0.014 0.05,0.024 0.094,0.063 0.145,0.126 0.031,0.05 0.05,0.12 0.05,0.194 0,0.07 -0.019,0.134 -0.069,0.215 -0.032,0.063 -0.101,0.119 -0.183,0.177 -0.132,0.094 -0.246,0.126 -0.353,0.12 -0.107,-0.014 -0.202,-0.058 -0.296,-0.159"
   id="path105"
   inkscape:connector-curvature="0" />
	<path
   clip-path="url(#SVGID_8_)"
   d="m 55.766,753.676 c -0.094,-0.038 -0.195,-0.107 -0.289,-0.208 -0.133,-0.151 -0.202,-0.303 -0.202,-0.46 0,-0.157 0.069,-0.289 0.195,-0.403 0.088,-0.082 0.189,-0.126 0.296,-0.138 v 0.176 c -0.063,0.006 -0.126,0.032 -0.182,0.082 -0.07,0.069 -0.107,0.145 -0.107,0.239 -0.019,0.095 0.018,0.177 0.088,0.265 l 0.201,-0.183 v 0.221 l -0.1,0.094 c 0.037,0.032 0.069,0.063 0.1,0.082 v 0.233 z m 0,-1.209 v 0.176 c 0.032,0 0.063,0.006 0.095,0.013 0.063,0.006 0.126,0.044 0.208,0.119 l -0.303,0.271 v 0.221 l 0.574,-0.511 c -0.013,-0.019 -0.026,-0.031 -0.038,-0.037 -0.132,-0.158 -0.277,-0.246 -0.422,-0.252 -0.038,-0.007 -0.076,-0.007 -0.114,0 m 0.517,0.554 0.183,-0.113 c 0.056,0.107 0.075,0.221 0.05,0.327 -0.019,0.12 -0.088,0.214 -0.183,0.315 -0.138,0.12 -0.283,0.17 -0.428,0.158 -0.05,0 -0.095,-0.014 -0.139,-0.032 v -0.233 c 0.063,0.044 0.126,0.063 0.183,0.076 0.095,0 0.189,-0.025 0.271,-0.095 0.057,-0.058 0.082,-0.107 0.101,-0.177 0.019,-0.062 0,-0.144 -0.038,-0.226"
   id="path107"
   inkscape:connector-curvature="0" />
	<path
   clip-path="url(#SVGID_8_)"
   d="m 57.638,751.118 0.183,-0.14 c 0.113,0.146 0.176,0.29 0.176,0.448 0.013,0.157 -0.044,0.309 -0.151,0.441 -0.101,0.138 -0.221,0.245 -0.353,0.283 -0.126,0.051 -0.258,0.063 -0.409,0.019 -0.152,-0.031 -0.29,-0.107 -0.41,-0.202 -0.145,-0.106 -0.246,-0.226 -0.309,-0.352 -0.063,-0.133 -0.081,-0.271 -0.069,-0.41 0.019,-0.132 0.076,-0.264 0.17,-0.384 0.095,-0.133 0.214,-0.214 0.359,-0.259 0.133,-0.037 0.271,-0.037 0.435,0.025 l -0.095,0.201 c -0.125,-0.044 -0.233,-0.044 -0.327,-0.025 -0.082,0.025 -0.158,0.096 -0.227,0.184 -0.075,0.101 -0.12,0.208 -0.126,0.309 0.006,0.107 0.038,0.207 0.095,0.296 0.056,0.094 0.138,0.17 0.226,0.239 0.114,0.088 0.234,0.139 0.334,0.164 0.107,0.038 0.215,0.038 0.315,-0.013 0.095,-0.037 0.17,-0.095 0.227,-0.171 0.082,-0.101 0.114,-0.208 0.107,-0.32 0,-0.119 -0.058,-0.226 -0.151,-0.333"
   id="path109"
   inkscape:connector-curvature="0" />
	<path
   clip-path="url(#SVGID_8_)"
   d="m 57.827,750.797 c -0.189,-0.113 -0.303,-0.253 -0.334,-0.416 -0.031,-0.145 0,-0.271 0.076,-0.403 0.088,-0.138 0.207,-0.233 0.352,-0.264 0.063,-0.02 0.133,-0.026 0.202,-0.014 v 0.222 c -0.063,-0.02 -0.126,-0.02 -0.183,-0.014 -0.088,0.02 -0.17,0.075 -0.214,0.164 -0.057,0.088 -0.076,0.183 -0.038,0.277 0.032,0.101 0.12,0.188 0.252,0.264 0.063,0.038 0.126,0.07 0.183,0.082 v 0.208 c -0.095,-0.011 -0.189,-0.044 -0.296,-0.106 m 0.296,-1.097 c 0.082,0.014 0.176,0.044 0.271,0.107 0.132,0.076 0.233,0.158 0.283,0.239 0.057,0.089 0.082,0.183 0.082,0.29 -0.006,0.101 -0.031,0.201 -0.088,0.289 -0.082,0.151 -0.202,0.239 -0.353,0.271 -0.063,0.019 -0.132,0.019 -0.195,0.006 v -0.208 c 0.057,0.013 0.113,0.02 0.17,0.007 0.101,-0.019 0.183,-0.076 0.227,-0.164 0.057,-0.088 0.063,-0.183 0.031,-0.271 -0.037,-0.102 -0.113,-0.195 -0.258,-0.277 -0.063,-0.032 -0.12,-0.057 -0.17,-0.068 V 749.7 z"
   id="path111"
   inkscape:connector-curvature="0" />
	<path
   clip-path="url(#SVGID_8_)"
   d="m 59.049,749.883 -1.09,-0.517 0.082,-0.176 0.151,0.082 c -0.082,-0.14 -0.094,-0.284 -0.019,-0.436 0.038,-0.068 0.076,-0.12 0.126,-0.164 0.057,-0.05 0.095,-0.075 0.151,-0.088 0.051,0 0.114,-0.006 0.164,0.013 0.044,0.007 0.107,0.031 0.196,0.082 l 0.674,0.315 -0.095,0.189 -0.668,-0.322 c -0.082,-0.037 -0.132,-0.057 -0.182,-0.063 -0.044,0.007 -0.089,0.007 -0.126,0.044 -0.038,0.02 -0.07,0.058 -0.095,0.108 -0.038,0.075 -0.044,0.163 -0.025,0.245 0.025,0.082 0.101,0.15 0.246,0.221 l 0.604,0.283 -0.094,0.184 z"
   id="path113"
   inkscape:connector-curvature="0" />
	<path
   clip-path="url(#SVGID_8_)"
   d="m 59.597,748.232 0.183,0.044 c -0.019,0.063 -0.025,0.114 -0.044,0.146 -0.026,0.075 -0.063,0.12 -0.108,0.156 -0.025,0.02 -0.069,0.046 -0.113,0.038 -0.038,0 -0.126,-0.024 -0.233,-0.068 l -0.649,-0.266 -0.063,0.14 -0.151,-0.063 0.063,-0.139 -0.277,-0.119 -0.038,-0.227 0.39,0.163 0.082,-0.195 0.152,0.063 -0.082,0.196 0.655,0.264 c 0.063,0.02 0.094,0.038 0.12,0.038 0.019,-0.006 0.031,-0.012 0.05,-0.024 0.019,-0.014 0.031,-0.025 0.038,-0.058 0.006,-0.025 0.019,-0.057 0.025,-0.089"
   id="path115"
   inkscape:connector-curvature="0" />
	<path
   clip-path="url(#SVGID_8_)"
   d="m 59.83,748.145 -1.147,-0.422 0.07,-0.17 0.17,0.057 c -0.063,-0.07 -0.101,-0.126 -0.114,-0.177 -0.018,-0.05 -0.006,-0.095 0.007,-0.139 0.019,-0.063 0.069,-0.133 0.138,-0.177 l 0.158,0.132 c -0.051,0.038 -0.082,0.082 -0.101,0.126 -0.019,0.044 -0.013,0.082 0,0.126 0.013,0.038 0.038,0.082 0.082,0.108 0.057,0.05 0.132,0.088 0.208,0.119 l 0.598,0.221 -0.069,0.196 z"
   id="path117"
   inkscape:connector-curvature="0" />
	<path
   clip-path="url(#SVGID_8_)"
   d="m 59.49,747.319 c -0.214,-0.07 -0.359,-0.17 -0.422,-0.328 -0.057,-0.132 -0.069,-0.265 -0.025,-0.403 0.05,-0.163 0.144,-0.271 0.277,-0.347 0.107,-0.05 0.214,-0.069 0.34,-0.05 v 0.214 c -0.107,-0.019 -0.189,-0.006 -0.265,0.02 -0.088,0.05 -0.157,0.119 -0.182,0.214 -0.038,0.095 -0.019,0.188 0.031,0.276 0.057,0.096 0.158,0.158 0.309,0.202 0.031,0.013 0.069,0.02 0.107,0.025 v 0.214 c -0.057,-0.005 -0.113,-0.018 -0.17,-0.037 m 0.17,-1.128 c 0.044,0.006 0.094,0.013 0.139,0.025 0.151,0.057 0.264,0.113 0.34,0.177 0.069,0.081 0.113,0.163 0.145,0.264 0.019,0.095 0.012,0.195 -0.026,0.296 -0.037,0.17 -0.132,0.284 -0.264,0.354 -0.101,0.05 -0.214,0.068 -0.334,0.05 v -0.214 c 0.101,0.013 0.189,0.007 0.258,-0.02 0.088,-0.05 0.158,-0.119 0.183,-0.214 0.038,-0.094 0.019,-0.188 -0.031,-0.276 -0.057,-0.096 -0.164,-0.158 -0.316,-0.202 -0.037,-0.013 -0.069,-0.02 -0.094,-0.025 v -0.215 z"
   id="path119"
   inkscape:connector-curvature="0" />
	<polygon
   clip-path="url(#SVGID_8_)"
   points="58.816,745.794 58.866,745.593 60.498,745.971 60.46,746.173 "
   id="polygon121" />
	<path
   clip-path="url(#SVGID_8_)"
   d="m 40.206,745.134 v 0.957 l -0.076,-0.007 v -0.29 c -0.063,-0.013 -0.107,-0.019 -0.132,-0.019 l 0.044,-0.183 c 0.025,0 0.05,0.007 0.094,0.013 v -0.428 c 0,-0.032 0.019,-0.044 0.051,-0.044 h 0.019 z m 0,-0.65 v 0.51 l -0.101,-0.006 0.006,-0.511 0.095,0.007 z m 0,-0.932 v 0.126 c -0.013,-0.007 -0.026,-0.007 -0.044,-0.013 l 0.044,-0.113 z m -0.208,2.828 c 0.075,0.014 0.145,0.038 0.208,0.069 v -0.208 c -0.051,-0.012 -0.101,-0.031 -0.158,-0.05 l -0.05,0.189 z m 0.208,-1.896 h 0.101 v 0.51 h -0.101 v -0.51 z m 0.113,0.65 v 0.434 0.07 0.194 l -0.006,0.259 h -0.107 v -0.957 h 0.113 z m 0,-1.639 v 0.233 c -0.032,-0.013 -0.069,-0.032 -0.113,-0.051 v -0.126 l 0.037,-0.089 c 0.026,0.015 0.051,0.026 0.076,0.033 m 0,-0.668 v 0.214 l -0.044,-0.006 0.044,-0.208 z m -0.113,3.622 c 0.037,0.013 0.075,0.032 0.113,0.051 v -0.215 c -0.032,-0.012 -0.069,-0.024 -0.113,-0.044 v 0.208 z m 0.806,-0.176 h -0.013 c -0.081,-0.032 -0.17,-0.069 -0.27,-0.102 l -0.057,0.184 c 0.12,0.031 0.233,0.082 0.34,0.145 v -0.227 z m 0,-1.229 h -0.22 c -0.013,0 -0.026,0.014 -0.026,0.026 l -0.012,1.033 c 0,0.019 0.006,0.024 0.025,0.031 h 0.233 v -0.195 h -0.063 c 0,0.006 -0.006,0 -0.006,-0.006 l 0.006,-0.688 c 0,-0.006 0.006,-0.006 0.013,-0.006 h 0.05 v -0.195 z m 0,-0.466 v 0.189 h -0.176 v 0.24 h -0.183 l -0.019,1.215 h -0.183 v -0.359 c -0.044,-0.012 -0.088,-0.025 -0.132,-0.031 v -0.194 c 0.05,0.012 0.095,0.018 0.139,0.024 v -0.334 l -0.107,-0.006 c -0.019,0.006 -0.026,0.012 -0.026,0.025 l -0.006,0.22 v -0.434 h 0.145 V 745 h 0.176 l 0.007,-0.542 h 0.195 v 0.114 l 0.17,0.006 z m 0,-2.457 v 0.46 l -0.088,0.378 0.088,0.02 v 0.214 l -0.132,-0.025 -0.133,0.567 c 0.101,0.082 0.189,0.164 0.265,0.258 v 0.164 l -0.094,0.076 c -0.089,-0.126 -0.189,-0.24 -0.309,-0.334 -0.063,-0.057 -0.164,-0.114 -0.29,-0.17 v -0.233 c 0.088,0.037 0.17,0.075 0.246,0.119 l 0.113,-0.491 -0.359,-0.082 v -0.214 l 0.403,0.088 0.189,-0.813 0.101,0.018 z m 0,-1.234 v 0.422 l -0.076,0.151 -0.176,-0.089 0.252,-0.484 z m -0.693,5.613 c 0.082,0.044 0.158,0.095 0.227,0.151 l 0.094,-0.17 c -0.082,-0.076 -0.189,-0.139 -0.321,-0.196 v 0.215 z m 0.693,-3.919 v -0.46 l 0.101,0.025 -0.101,0.435 z m 0,1.575 v -0.164 c 0.025,0.032 0.05,0.07 0.076,0.102 l -0.076,0.062 z m 0.183,2.123 v 0.354 c -0.063,-0.051 -0.12,-0.096 -0.183,-0.133 v -0.227 l 0.183,0.006 z m 0,-1.227 v 1.083 h -0.183 v -0.195 l 0.05,0.006 c 0,0 0.007,-0.006 0.007,-0.012 l 0.006,-0.688 c 0,-0.006 0,-0.006 -0.006,-0.006 h -0.057 v -0.196 l 0.183,0.008 z m 0,-0.284 h -0.183 v -0.189 h 0.183 v 0.189 z m 0,-1.751 v 0.214 l -0.183,-0.038 v -0.214 l 0.183,0.038 z m 0,-1.5 v 0.139 l -0.057,-0.025 0.057,-0.114 z m 0,-0.7 v 0.139 l -0.183,0.353 v -0.422 l 0.063,-0.126 0.12,0.056 z m 0,-0.308 v 0.17 l -0.07,-0.037 0.07,-0.133 z m 0,0.447 0.056,-0.113 -0.056,-0.025 v 0.138 z m 0.296,5.323 v 0.189 h -0.189 c 0.012,0.013 0.025,0.019 0.038,0.031 l -0.107,0.17 c -0.013,-0.013 -0.026,-0.024 -0.038,-0.037 v -0.354 h 0.296 z m 0,-1.259 v 1.146 h -0.107 l 0.006,-0.536 h -0.126 l -0.006,0.479 c 0,0.019 -0.013,0.025 -0.032,0.025 h -0.031 v -1.083 h 0.044 c 0.019,0 0.031,0.006 0.031,0.024 l -0.006,0.359 h 0.126 l 0.006,-0.416 h 0.095 z m 0,-0.442 v 0.195 l -0.296,-0.006 v -0.189 h 0.296 z m 0,-1.605 v 0.919 l -0.038,0.164 -0.202,-0.044 0.164,-0.731 -0.22,-0.05 v -0.214 l 0.271,0.063 0.025,-0.107 z m 0,-2.03 v 0.529 l -0.044,-0.02 -0.133,0.259 -0.119,-0.057 v -0.139 l 0.296,-0.572 z m 0,-0.277 -0.019,0.038 c -0.013,0.02 -0.006,0.025 0.006,0.031 l 0.013,0.006 v -0.075 z m 0,-0.73 v 0.429 l -0.189,0.365 -0.107,-0.051 v -0.17 l 0.296,-0.573 z m 0.176,6.343 v 0.195 l -0.176,-0.006 v -0.189 h 0.176 z m 0,-0.838 v 0.188 h -0.094 v 0.253 h 0.094 v 0.195 l -0.094,-0.007 -0.007,0.095 h -0.075 v -1.146 h 0.088 v 0.422 h 0.088 z m 0,-0.857 v 0.189 h -0.176 v -0.195 l 0.176,0.006 z m 0,-2.241 v 0.994 l -0.05,-0.012 -0.126,0.566 v -0.919 l 0.145,-0.638 0.031,0.009 z m 0,-0.7 v 0.202 c -0.056,-0.032 -0.119,-0.063 -0.176,-0.089 l 0.101,-0.157 c 0.025,0.018 0.05,0.031 0.075,0.044 m 0,-0.667 v 0.056 l -0.132,0.246 0.132,0.063 v 0.214 l -0.176,-0.082 v -0.529 l 0.019,-0.044 0.157,0.076 z m 0,-0.65 -0.176,0.34 v 0.075 l 0.176,0.089 v -0.504 z m 0,-0.73 v 0.428 l -0.176,0.341 v -0.429 l 0.176,-0.34 z m 0,1.435 v -0.056 l 0.019,0.012 -0.019,0.044 z m 0.107,5.444 h -0.107 v -0.195 h 0.107 v 0.195 z m 0,-1.487 v 1.229 h -0.025 l 0.006,-0.139 h -0.088 v -0.195 h 0.088 v -0.253 h -0.088 v -0.188 h 0.095 v -0.453 h 0.012 z m 0,-0.215 h -0.107 v -0.189 h 0.107 v 0.189 z m 0,-2.412 v 0.277 l -0.107,0.479 0.107,0.025 v 0.214 l -0.107,-0.02 v -0.994 l 0.107,0.019 z m 0,-0.662 v 0.202 c -0.031,-0.019 -0.069,-0.038 -0.107,-0.057 v -0.202 c 0.038,0.019 0.076,0.039 0.107,0.057 m 0,-0.302 v 0.214 l -0.107,-0.057 v -0.214 l 0.107,0.057 z m 0,-0.22 v 0.132 l -0.037,-0.019 0.037,-0.113 z m 0,-1.072 v 0.372 l -0.075,0.15 c -0.007,0.007 -0.007,0.014 0,0.014 l 0.075,0.037 v 0.201 l -0.107,-0.05 v -0.504 l 0.107,-0.22 z m 0,-0.498 v 0.196 l -0.107,0.22 v -0.428 l 0.019,-0.038 0.088,0.05 z m 0,0.197 0.082,-0.158 -0.082,-0.038 v 0.196 z m 0,2.835 v -0.277 l 0.063,0.012 -0.063,0.265 z m 0.385,3.646 v 0.189 h -0.385 v -0.195 l 0.385,0.006 z m 0,-0.837 -0.215,-0.007 0.007,-0.453 h -0.177 v 1.229 h 0.164 l 0.006,-0.579 h 0.215 v -0.19 z m 0,-0.832 v 0.454 l -0.145,-0.007 c 0.019,-0.063 0.031,-0.107 0.044,-0.126 0.012,-0.075 0.012,-0.119 -0.006,-0.138 -0.013,-0.014 -0.038,-0.02 -0.07,-0.02 l -0.208,-0.007 v -0.189 h 0.265 c 0.044,0.009 0.088,0.015 0.12,0.033 m 0,-1.008 v 0.838 l -0.183,-0.044 0.183,-0.794 z m 0,-0.383 v 0.22 l -0.385,-0.088 v -0.214 l 0.385,0.082 z m 0,-1.305 c -0.114,-0.069 -0.24,-0.139 -0.385,-0.221 v 0.202 c 0.133,0.075 0.265,0.151 0.385,0.226 v -0.207 z m 0,-0.341 v 0.215 l -0.385,-0.183 v -0.214 l 0.385,0.182 z m 0,-0.289 -0.366,-0.151 -0.019,0.038 v 0.132 l 0.385,0.158 v -0.177 z m 0,-0.396 v 0.283 l -0.057,-0.031 c -0.038,-0.02 -0.05,-0.044 -0.032,-0.082 l 0.089,-0.17 z m 0,-0.682 -0.265,0.518 h -0.013 l -0.107,-0.051 v 0.201 l 0.158,0.076 c 0.019,0.006 0.025,0.006 0.038,-0.007 l 0.189,-0.371 v -0.366 z m 0,-0.352 v 0.207 l -0.133,-0.063 c 0,-0.006 -0.006,0 -0.006,0 l -0.246,0.474 v -0.372 l 0.17,-0.321 c 0.007,-0.013 0.019,-0.019 0.032,-0.013 l 0.183,0.088 z m 0.05,6.615 h -0.05 v -0.189 h 0.05 v 0.189 z m 0,-0.837 h -0.05 v -0.189 h 0.05 v 0.189 z m 0,-0.984 v 0.416 h -0.05 v -0.454 c 0.018,0.013 0.031,0.026 0.05,0.038 m 0,-1.418 v 1.084 l -0.032,0.126 h -0.018 v -0.838 l 0.037,-0.158 -0.037,-0.006 v -0.22 l 0.05,0.012 z m 0,-1.291 v 0.214 c -0.019,-0.013 -0.032,-0.019 -0.05,-0.032 v -0.207 c 0.018,0.007 0.031,0.018 0.05,0.025 m 0,-0.34 v 0.214 l -0.05,-0.025 v -0.215 l 0.05,0.026 z m 0,-0.296 v 0.177 l -0.05,-0.019 v -0.177 l 0.05,0.019 z m 0,-0.511 v 0.403 l -0.05,-0.024 v -0.283 l 0.05,-0.096 z m 0,-0.68 v 0.365 l -0.05,0.095 v -0.366 l 0.05,-0.094 z m 0,-0.232 v 0.2 l -0.05,-0.019 v -0.207 l 0.05,0.026 z m 0,-0.984 v 0.019 l -0.013,-0.007 c 0.007,-0.006 0.007,-0.006 0.013,-0.012 m 0,6.168 v -0.416 c 0.006,0.012 0.019,0.025 0.025,0.038 0.044,0.063 0.038,0.188 -0.019,0.378 h -0.006 z m 0,0.378 h 0.013 v 0.189 h -0.013 v -0.189 z m 0,1.027 v -0.189 h 0.025 l -0.006,0.189 h -0.019 z m 0.164,-3.812 v 0.92 l -0.164,0.737 v -1.084 l 0.032,0.007 0.132,-0.58 z m 0,-0.61 v 0.156 l -0.032,0.045 c -0.044,-0.031 -0.088,-0.063 -0.132,-0.095 v -0.214 c 0.057,0.038 0.113,0.076 0.164,0.108 m 0,-0.366 v 0.215 l -0.164,-0.082 v -0.214 l 0.164,0.081 z m 0,-0.309 v 0.177 l -0.164,-0.069 v -0.177 l 0.164,0.069 z m 0,-0.906 -0.164,0.326 v 0.403 l 0.164,0.082 v -0.214 l -0.051,-0.025 c -0.018,-0.013 -0.018,-0.019 -0.012,-0.038 l 0.063,-0.126 v -0.408 z m 0,-0.504 v 0.188 l -0.164,0.327 v -0.365 l 0.006,-0.013 c 0,-0.006 0,-0.012 -0.006,-0.012 v -0.008 -0.2 l 0.164,0.083 z m 0,-1.242 v 0.297 c 0,0.006 -0.006,0.012 -0.006,0.012 l -0.158,-0.113 v -0.019 c 0.057,-0.057 0.113,-0.121 0.164,-0.177 m 0,1.43 v -0.188 l 0.057,0.024 c 0.018,0.012 0.018,0.025 0.012,0.038 l -0.069,0.126 z m 0,2.053 v -0.156 c 0.031,0.019 0.057,0.038 0.082,0.05 l -0.082,0.106 z m 0.12,0.145 v 0.725 l -0.12,0.504 v -0.92 l 0.075,-0.314 0.045,0.005 z m 0,-0.611 v 0.214 l -0.12,-0.056 v -0.215 l 0.12,0.057 z m 0,-0.321 v 0.177 l -0.12,-0.044 v -0.177 l 0.12,0.044 z m 0,-0.296 v 0.215 l -0.12,-0.058 v -0.214 l 0.12,0.057 z m 0,-0.882 v 0.497 l -0.038,-0.018 -0.082,0.156 v -0.408 l 0.12,-0.227 z m 0,-1.644 v 0.303 c -0.045,0.044 -0.082,0.088 -0.12,0.12 v -0.297 c 0.044,-0.038 0.082,-0.081 0.12,-0.126 m 0,2.999 0.018,0.013 0.07,-0.151 -0.088,-0.038 v 0.176 z m 0,1.48 v -0.725 l 0.157,0.038 -0.157,0.687 z m 0.296,-1.19 v 0.214 l -0.296,-0.146 v -0.214 l 0.296,0.146 z m 0,-1.827 v 0.214 l -0.057,-0.031 c -0.019,-0.007 -0.032,0 -0.038,0.012 l -0.151,0.297 0.227,0.107 0.019,-0.045 v 0.404 l -0.101,0.201 0.101,0.051 v 0.214 l -0.296,-0.145 v -0.215 l 0.031,0.013 0.158,-0.309 -0.189,-0.089 v -0.497 l 0.107,-0.202 c 0.019,-0.038 0.05,-0.05 0.088,-0.03 l 0.101,0.05 z m 0,-1.022 v 0.278 l -0.12,0.113 -0.145,-0.151 0.265,-0.24 z m 0,-0.787 v 0.567 l -0.114,-0.113 c -0.063,0.069 -0.126,0.139 -0.182,0.195 V 738.6 c 0.113,-0.12 0.214,-0.24 0.296,-0.347 m 0,3.85 v -0.214 l 0.1,0.05 -0.088,0.171 -0.012,-0.007 z m 0.321,-1.883 v 0.214 l -0.013,-0.007 -0.163,0.314 0.176,0.082 v 0.441 l -0.063,0.126 0.063,0.031 v 0.051 l -0.063,0.133 -0.258,-0.12 v -0.214 l 0.088,0.037 0.157,-0.308 -0.189,-0.088 -0.056,0.107 v -0.404 l 0.145,-0.27 -0.145,-0.07 v -0.214 l 0.321,0.159 z m 0,-1.476 v 0.7 c -0.025,-0.114 -0.057,-0.221 -0.101,-0.328 l -0.22,0.202 v -0.278 l 0.113,-0.1 -0.113,-0.12 v -0.567 c 0.05,-0.057 0.094,-0.119 0.132,-0.17 l 0.164,0.113 c -0.044,0.076 -0.139,0.189 -0.265,0.347 -0.006,0 -0.006,0.007 -0.006,0.007 l 0.239,0.252 0.057,-0.058 z m 0,2.521 v -0.441 l 0.013,0.007 0.163,-0.314 -0.176,-0.082 v -0.214 l 0.523,0.252 -0.088,0.17 -0.089,-0.044 -0.346,0.666 z m 0,0.208 v -0.051 l 0.025,0.014 -0.025,0.037 z m 0.573,-2.477 c -0.157,-0.019 -0.315,-0.03 -0.479,-0.044 l -0.006,-0.006 0.347,-0.328 -0.139,-0.145 -0.296,0.271 v 0.7 c 0.044,0.182 0.069,0.378 0.076,0.573 l 0.207,-0.063 c -0.018,-0.214 -0.056,-0.428 -0.126,-0.643 l 0.416,0.422 v -0.289 l -0.29,-0.296 c 0.101,0.012 0.196,0.024 0.29,0.037 v -0.189 z m 0,-0.787 v 0.29 l -0.485,-0.498 0.145,-0.139 0.34,0.347 z m 0,-0.712 v 0.29 l -0.189,-0.188 0.151,-0.14 0.038,0.038 z m 0,1.002 0.605,0.623 0.151,-0.138 -0.756,-0.775 v 0.29 z m 0,0.687 v -0.189 c 0.095,0.014 0.189,0.026 0.284,0.038 l -0.032,0.202 c -0.075,-0.019 -0.164,-0.033 -0.252,-0.051 m 0,0.547 v -0.289 l 0.485,0.497 -0.151,0.139 -0.334,-0.347 z m 1.109,-0.667 v 0.271 c -0.05,0.037 -0.12,0.075 -0.189,0.113 l -0.145,-0.158 c 0.17,-0.088 0.284,-0.163 0.334,-0.226 m 0,-0.428 v 0.29 l -1.109,-1.141 v -0.29 l 1.109,1.141 z m 0,-0.92 v 0.208 l -0.069,0.031 -0.089,-0.164 0.158,-0.075 z m 0,-0.429 c -0.019,-0.019 -0.044,-0.044 -0.076,-0.068 l -0.132,0.118 c 0.063,0.058 0.132,0.127 0.208,0.208 v -0.258 z m 0,-0.586 v 0.397 l -0.365,0.176 -0.082,-0.163 0.409,-0.196 -0.075,-0.156 0.113,-0.058 z m 0.17,2.105 v 0.396 c -0.044,0.044 -0.101,0.088 -0.17,0.133 v -0.271 c 0.025,-0.026 0.038,-0.051 0.038,-0.07 0,-0.019 -0.006,-0.037 -0.032,-0.063 l -0.006,-0.006 v -0.29 l 0.17,0.171 z m 0,-0.763 v 0.259 l -0.094,-0.183 c -0.013,-0.019 -0.007,-0.032 0.012,-0.038 l 0.082,-0.038 z m 0,-0.402 v 0.201 l -0.17,0.082 v -0.208 l 0.17,-0.075 z m 0,-0.184 v 0.088 l -0.101,0.076 c -0.019,-0.024 -0.044,-0.05 -0.069,-0.076 v -0.258 c 0.069,0.069 0.126,0.12 0.17,0.17 m 0,-0.642 v 0.201 l -0.17,0.082 v -0.397 l 0.069,-0.031 0.076,0.151 0.025,-0.006 z m 0,0.73 v -0.088 c 0.013,0.02 0.032,0.038 0.044,0.052 l -0.044,0.036 z m 0,1.657 c 0.044,-0.05 0.076,-0.101 0.088,-0.15 0.019,-0.082 0,-0.151 -0.063,-0.221 l -0.025,-0.025 v 0.396 z m 0.473,-1.391 v 0.202 l -0.296,0.144 c -0.019,0.013 -0.026,0.02 -0.013,0.038 l 0.183,0.359 0.126,-0.063 v 0.202 l -0.044,0.025 0.044,0.082 v 0.013 l -0.17,0.082 -0.303,-0.593 v -0.259 l 0.473,-0.232 z m 0,-0.618 c -0.013,-0.095 -0.032,-0.177 -0.044,-0.246 l -0.189,0.02 c 0.037,0.119 0.063,0.29 0.081,0.516 l -0.321,0.158 v 0.201 l 0.473,-0.227 v -0.422 z m 0,-0.416 v 0.012 l -0.473,0.228 v -0.201 l 0.397,-0.196 0.076,0.157 z m 0,-0.308 v 0.031 c -0.007,-0.013 -0.007,-0.019 0,-0.031 m 0,0.32 v -0.012 l 0.006,0.006 -0.006,0.006 z m 0,2.023 v -0.013 l 0.006,0.006 -0.006,0.007 z m 0.037,-0.34 v 0.208 l -0.037,0.013 v -0.202 l 0.037,-0.019 z m 0,-0.681 v 0.208 l -0.037,0.014 v -0.202 l 0.037,-0.02 z m 0,-0.397 v 0.202 l -0.037,0.019 v -0.422 c 0.012,0.063 0.018,0.132 0.025,0.201 h 0.012 z m 0,-0.945 v 0.12 l -0.037,-0.063 v -0.007 -0.031 c 0.006,0 0.012,-0.007 0.018,-0.014 l 0.019,-0.005 z m 0,1.148 v -0.202 l 0.265,-0.132 0.082,0.164 -0.347,0.17 z m 0,1.083 v -0.208 l 0.46,-0.221 -0.182,-0.358 c -0.013,-0.02 -0.019,-0.02 -0.038,-0.014 l -0.24,0.12 v -0.208 l 0.322,-0.15 c 0.025,-0.014 0.044,-0.006 0.05,0.012 l 0.397,0.769 -0.176,0.089 -0.051,-0.095 -0.542,0.264 z m 1.386,-1.373 c -0.025,-0.032 -0.05,-0.069 -0.081,-0.102 -0.089,-0.082 -0.215,-0.164 -0.378,-0.252 -0.019,-0.006 -0.032,-0.024 -0.038,-0.044 l -0.12,-0.718 -0.164,-0.038 -0.605,0.296 v 0.12 l 0.92,1.802 0.183,-0.089 -0.87,-1.701 c -0.006,-0.018 -0.006,-0.03 0.013,-0.037 l 0.353,-0.17 c 0,0 0,0.007 0.006,0.025 l 0.107,0.63 c 0,0.012 0.013,0.025 0.038,0.038 0.246,0.126 0.403,0.239 0.485,0.346 0.095,0.151 0.107,0.258 0.038,0.315 -0.044,0.044 -0.151,0.063 -0.309,0.063 l 0.076,0.208 c 0.151,-0.013 0.265,-0.038 0.346,-0.095 v -0.597 z m 0,-1.254 v 0.314 c -0.044,-0.1 -0.088,-0.182 -0.132,-0.252 l 0.132,-0.062 z m 0.108,1.462 v 0.258 c -0.013,0.032 -0.026,0.063 -0.051,0.088 -0.019,0.013 -0.038,0.032 -0.057,0.044 v -0.598 c 0.051,0.068 0.089,0.138 0.108,0.208 m 0,-0.474 v 0.045 l -0.019,-0.019 0.019,-0.026 z m 0,-0.888 v 0.466 l -0.007,0.007 c -0.031,-0.095 -0.069,-0.183 -0.101,-0.259 v -0.314 l 0.038,-0.02 c 0.025,0.038 0.051,0.076 0.07,0.12 m 0,0.466 0.17,-0.063 c -0.051,-0.151 -0.107,-0.289 -0.17,-0.403 v 0.466 z m 0,1.153 c 0.012,-0.025 0.018,-0.05 0.025,-0.082 0,-0.056 -0.007,-0.119 -0.025,-0.176 v 0.258 z m 1.234,-0.737 c -0.037,0.14 -0.113,0.258 -0.214,0.359 -0.12,0.114 -0.233,0.202 -0.334,0.258 l 0.158,0.152 c 0.164,-0.107 0.29,-0.228 0.39,-0.348 v -0.421 z m 0,-0.352 -0.611,0.133 0.044,0.188 0.567,-0.126 v -0.195 z m 0,-0.592 -0.39,0.082 c 0,-0.051 -0.007,-0.107 -0.013,-0.158 l -0.195,0.025 c 0.012,0.139 0.012,0.245 0,0.321 -0.019,0.094 -0.051,0.183 -0.101,0.277 l 0.189,0.068 c 0.05,-0.094 0.088,-0.2 0.107,-0.326 0.006,0 0.006,-0.007 0,-0.014 l 0.34,-0.068 0.063,0.282 v -0.489 z m 0,-0.429 v 0.195 l -0.857,0.188 c -0.018,0 -0.025,0.014 -0.025,0.025 l 0.183,0.788 c 0.082,0.378 0.025,0.724 -0.183,1.045 l -0.189,-0.063 c 0.114,-0.189 0.183,-0.359 0.202,-0.505 0.012,-0.112 0.006,-0.238 -0.013,-0.37 l -0.208,0.22 -0.144,-0.101 v -0.045 l 0.302,-0.32 -0.176,-0.763 c -0.007,-0.038 0.006,-0.057 0.044,-0.069 l 0.737,-0.157 -0.038,-0.17 0.202,-0.044 0.037,0.17 0.126,-0.024 z m 0,0.195 v -0.195 l 0.662,-0.139 0.038,0.183 -0.7,0.151 z m 1.103,1.455 v 0.063 l -0.063,0.134 c -0.353,-0.076 -0.63,-0.24 -0.819,-0.486 -0.006,0 -0.006,0 0,0 -0.013,0.045 -0.044,0.126 -0.088,0.24 -0.038,0.068 -0.082,0.132 -0.133,0.194 v -0.422 c 0.019,-0.05 0.032,-0.106 0.038,-0.164 L 48.2,736.88 v -0.195 l 0.019,-0.006 v -0.014 L 48.2,736.583 v -0.49 l 0.719,-0.157 0.044,0.188 -0.624,0.132 0.082,0.365 c 0,0.007 0.006,0.007 0,0.02 l 0.68,-0.151 0.044,0.189 -0.655,0.139 c 0.151,0.257 0.422,0.421 0.813,0.496 m 0,-1.776 v 0.095 c -0.006,-0.031 -0.019,-0.058 -0.032,-0.089 l 0.032,-0.006 z m 0.012,1.776 v 0.032 l -0.012,0.03 v -0.063 h 0.012 z m 0,-0.761 v 0.024 l -0.012,-0.019 c 0.006,10e-4 0.012,-0.005 0.012,-0.005 m 0,-1.015 v 0.151 c 0,-0.02 -0.006,-0.038 -0.012,-0.057 v -0.095 h 0.012 z m 0,0.151 c 0.032,0.12 0.063,0.258 0.082,0.428 l 0.189,-0.031 c -0.031,-0.232 -0.069,-0.429 -0.126,-0.586 l -0.145,0.038 v 0.151 z m 0,1.658 0.019,-0.032 h -0.019 v 0.032 z m 1.405,-1.595 -0.756,0.02 0.007,0.188 0.623,-0.013 0.007,0.177 -0.586,0.013 c -0.044,0 -0.07,0.024 -0.07,0.068 l 0.032,1.224 h 0.195 l -0.025,-1.091 c 0,-0.007 0.006,-0.013 0.013,-0.013 l 0.434,-0.012 c -0.044,0.314 -0.17,0.529 -0.39,0.655 l 0.151,0.132 c 0.183,-0.132 0.302,-0.29 0.365,-0.466 v -0.882 z m 0,-0.34 v 0.189 l -0.869,0.019 c -0.019,0.006 -0.025,0.013 -0.025,0.031 l 0.019,0.756 c 0.006,0.403 -0.107,0.75 -0.341,1.033 l -0.176,-0.088 c 0.132,-0.17 0.221,-0.334 0.265,-0.479 0.025,-0.094 0.037,-0.194 0.044,-0.308 -0.082,0.063 -0.158,0.119 -0.227,0.163 l -0.095,-0.151 v -0.024 c 0.057,-0.038 0.164,-0.12 0.328,-0.252 l -0.019,-0.813 c 0,-0.031 0.019,-0.05 0.057,-0.05 l 0.794,-0.02 -0.007,-0.17 0.208,-0.006 0.007,0.17 h 0.037 z m 0,0.19 v -0.189 l 0.769,-0.019 0.006,0.188 -0.775,0.02 z m 0,1.033 v -0.883 l 0.725,-0.019 0.006,0.188 -0.661,0.02 0.006,0.176 0.611,-0.012 c 0.05,0 0.076,0.019 0.076,0.063 l 0.025,1.001 c 0,0.082 -0.025,0.152 -0.088,0.196 -0.089,0.063 -0.259,0.069 -0.517,0.025 l -0.013,-0.214 c 0.126,0.03 0.227,0.05 0.284,0.05 0.031,0 0.063,-0.014 0.082,-0.025 0.038,-0.024 0.057,-0.057 0.05,-0.095 l -0.019,-0.793 c 0,-0.013 -0.006,-0.013 -0.012,-0.013 l -0.485,0.013 c -0.007,0.031 -0.013,0.075 -0.019,0.126 0.164,0.157 0.327,0.321 0.479,0.497 l -0.152,0.133 c -0.107,-0.132 -0.233,-0.271 -0.378,-0.434 m 1.859,-0.234 -0.303,-0.082 c -0.037,-0.006 -0.056,0.006 -0.069,0.038 l -0.321,1.108 c -0.013,0.045 0.006,0.069 0.044,0.081 l 0.649,0.178 v -0.208 l -0.447,-0.12 c -0.013,0 -0.019,-0.012 -0.013,-0.025 l 0.05,-0.17 0.41,0.113 v -0.189 l -0.359,-0.101 0.038,-0.132 0.321,0.082 v -0.189 l -0.271,-0.068 0.044,-0.158 c 0.006,-0.013 0.013,-0.02 0.032,-0.02 l 0.195,0.052 v -0.19 z m 0,-0.296 v 0.188 l -0.416,-0.113 c -0.013,0 -0.025,0.007 -0.025,0.013 l -0.076,0.264 -0.182,-0.05 0.119,-0.422 c 0.013,-0.019 0.025,-0.025 0.044,-0.019 l 0.536,0.139 z m 0,-0.53 v 0.02 c -0.013,0.007 -0.025,0.019 -0.032,0.031 l 0.032,0.007 v 0.188 c 0,0 0,-0.006 -0.006,-0.012 l -0.183,-0.051 c -0.095,0.075 -0.195,0.132 -0.29,0.183 -0.025,-0.076 -0.05,-0.139 -0.082,-0.177 0.158,-0.069 0.296,-0.177 0.422,-0.321 l 0.139,0.132 z m 0,0.02 v -0.02 l 0.006,0.007 c 0,0.006 -0.006,0.006 -0.006,0.013 m 0,0.226 c 0.006,0.063 0.012,0.132 0.019,0.221 l 0.189,-0.013 c 0,-0.063 -0.007,-0.113 -0.013,-0.164 l 0.309,0.082 0.05,-0.164 -0.554,-0.15 v 0.188 z m 0,1.154 0.932,0.252 c 0.038,0.013 0.063,0 0.07,-0.038 l 0.126,-0.422 c 0.006,-0.038 -0.007,-0.058 -0.045,-0.069 l -1.083,-0.296 v 0.189 l 0.869,0.238 c 0.019,0.006 0.025,0.014 0.025,0.032 l -0.037,0.132 c -0.007,0.013 -0.019,0.02 -0.038,0.02 l -0.819,-0.228 v 0.19 z m 0,0.75 v -0.208 l 0.705,0.194 c 0.013,0 0.026,-0.006 0.032,-0.019 l 0.038,-0.151 c 0.006,-0.013 0,-0.019 -0.013,-0.024 l -0.762,-0.202 v -0.189 l 0.97,0.26 c 0.044,0.012 0.063,0.036 0.05,0.081 l -0.126,0.429 c -0.012,0.044 -0.037,0.057 -0.088,0.044 l -0.806,-0.215 z m 1.43,-0.044 v 0.384 l -0.032,0.05 -0.176,-0.1 0.208,-0.334 z m 0,-1.658 v 0.176 l -0.233,-0.063 c 0.012,0.057 0.019,0.113 0.025,0.183 l -0.195,0.019 c -0.007,-0.101 -0.019,-0.188 -0.032,-0.259 l -0.17,-0.044 v 0.007 c -0.057,0.051 -0.12,0.101 -0.189,0.146 -0.006,-0.02 -0.019,-0.038 -0.025,-0.051 l -0.038,0.126 0.832,0.227 0.025,0.025 v 0.314 c -0.025,0.051 -0.057,0.096 -0.095,0.146 l -0.151,-0.102 c 0.07,-0.112 0.107,-0.176 0.114,-0.194 0.006,-0.02 0,-0.032 -0.019,-0.038 l -1.279,-0.347 v -0.188 l 0.378,0.1 0.044,-0.163 0.157,0.044 c -0.018,-0.024 -0.031,-0.044 -0.05,-0.057 0.12,-0.076 0.221,-0.183 0.302,-0.321 l 0.171,0.113 c -0.013,0.02 -0.032,0.044 -0.051,0.069 l 0.479,0.132 z m 0,0.176 v -0.176 l 0.214,0.056 -0.05,0.164 -0.164,-0.044 z m 0,0.63 c 0.05,-0.075 0.088,-0.15 0.113,-0.22 l -0.113,-0.095 v 0.315 z m 1.531,1.897 v 0.341 c -0.038,0.025 -0.082,0.037 -0.126,0.044 -0.088,0 -0.208,-0.076 -0.353,-0.227 l 0.113,-0.177 c 0.045,0.051 0.082,0.088 0.108,0.113 0.05,0.05 0.094,0.069 0.132,0.069 0.019,-0.006 0.038,-0.02 0.05,-0.051 l 0.076,-0.112 z m 0,-0.813 -0.315,0.497 0.176,0.108 0.139,-0.222 v -0.383 z m 0,-0.988 v 0.232 l -0.24,-0.139 -0.144,0.227 0.384,0.233 v 0.232 l -0.492,-0.29 -0.107,0.164 0.416,0.246 c 0.032,0.02 0.038,0.044 0.019,0.075 l -0.384,0.612 c -0.051,0.068 -0.101,0.1 -0.183,0.106 -0.076,0 -0.183,-0.051 -0.302,-0.157 l 0.107,-0.195 c 0.075,0.082 0.126,0.12 0.151,0.12 0.044,0 0.076,-0.02 0.101,-0.051 l 0.245,-0.403 c 0.007,-0.006 0,-0.013 -0.006,-0.02 l -0.264,-0.164 -0.473,0.75 -0.176,-0.106 0.472,-0.744 -0.271,-0.163 c -0.006,-0.007 -0.019,-0.007 -0.025,0.006 l -0.359,0.567 v -0.384 l 0.277,-0.43 c 0.019,-0.03 0.038,-0.038 0.069,-0.019 l 0.416,0.246 0.107,-0.164 -0.51,-0.309 0.107,-0.171 0.504,0.31 0.145,-0.233 -0.271,-0.164 c -0.088,0.044 -0.17,0.082 -0.246,0.107 l -0.1,-0.183 c 0.201,-0.063 0.371,-0.163 0.497,-0.289 l 0.139,0.145 c -0.038,0.031 -0.076,0.063 -0.113,0.094 l 0.207,0.12 0.126,-0.202 0.177,0.107 -0.126,0.202 0.126,0.079 z m 0,0.786 0,0 0.113,-0.17 -0.113,-0.063 v 0.233 z m 0.29,1.777 v 0.056 l -0.032,-0.024 0.032,-0.032 z m 0,-1.216 -0.29,0.453 v 0.341 c 0.025,-0.02 0.05,-0.044 0.075,-0.076 l 0.215,-0.34 v -0.378 z m 0,-0.813 v 0.385 l -0.29,0.453 v -0.384 l 0.29,-0.454 z m 0,-0.364 v 0.063 l -0.082,0.126 -0.208,-0.126 v -0.232 l 0.29,0.169 z m 0,0.062 v -0.063 l 0.025,0.019 -0.025,0.044 z m 0,0.687 0.384,-0.611 -0.177,-0.107 -0.207,0.334 v 0.384 z m 0.775,1.146 v 0.34 l -0.164,-0.15 c -0.013,-0.014 -0.025,-0.014 -0.038,0 l -0.076,0.075 0.278,0.259 v 0.227 l -0.391,-0.366 -0.088,0.089 0.479,0.447 v 0.228 l -0.593,-0.556 -0.069,0.07 -0.113,-0.108 v -0.056 l 0.447,-0.454 c -0.113,-0.063 -0.214,-0.132 -0.302,-0.195 l 0.081,-0.177 c 0.183,0.126 0.372,0.233 0.549,0.327 m 0,-0.334 -0.252,-0.233 -0.133,0.133 0.385,0.353 v -0.253 z m 0,-1.317 v 0.082 l -0.775,1.229 v -0.378 l 0.642,-1.014 0.133,0.081 z m 0,0.082 v -0.082 l 0.044,0.02 -0.044,0.062 z m 0.623,2.621 v 0.277 l -0.271,0.271 -0.138,-0.133 0.069,-0.068 -0.283,-0.252 v -0.228 l 0.396,0.359 0.089,-0.088 -0.485,-0.441 v -0.227 l 0.598,0.554 0.025,-0.024 z m 0,-1.26 -0.472,-0.428 -0.126,0.132 0.485,0.447 -0.101,0.101 -0.409,-0.378 v 0.252 l 0.176,0.164 c -0.057,-0.025 -0.113,-0.057 -0.176,-0.082 v 0.34 l 0.623,0.574 v -0.227 L 56.8,739.285 c 0.012,0 0.019,0 0.031,0.006 0.095,0.045 0.202,0.082 0.315,0.12 l 0.082,0.069 v -0.252 l -0.063,-0.057 0.063,-0.063 v -0.326 z m 0,-0.887 v 0.227 l -0.113,-0.101 c 0,-0.006 -0.006,-0.006 -0.006,0 l -0.114,0.113 c -0.006,0.007 -0.006,0.007 -0.006,0.013 l 0.239,0.22 v 0.221 l -0.485,-0.44 c -0.012,-0.013 -0.006,-0.025 0.006,-0.038 l 0.322,-0.328 c 0.012,-0.012 0.025,-0.012 0.031,0 l 0.126,0.113 z m 0.133,1.909 v 0.378 l -0.133,0.138 v -0.277 l 0.051,-0.057 c 0.012,-0.012 0.012,-0.025 0,-0.037 l -0.051,-0.044 v -0.227 l 0.133,0.126 z m 0,-0.518 v 0.321 l -0.133,-0.126 v -0.252 l 0.025,0.025 c 0.032,0.014 0.07,0.02 0.108,0.032 m 0,-0.944 v 0.818 l -0.095,-0.088 -0.038,0.038 v -0.328 l 0.013,0.02 0.101,-0.102 -0.114,-0.113 v -0.221 l 0.057,0.051 0.076,-0.075 z m 0,-0.327 v 0.226 l -0.133,-0.119 v -0.227 l 0.133,0.12 z m 0,2.167 0.151,-0.151 c 0.031,-0.032 0.031,-0.063 -0.007,-0.095 l -0.144,-0.132 v 0.378 z m 0.283,-1.904 v 0.227 l -0.094,-0.082 -0.126,0.127 0.22,0.201 v 0.227 l -0.151,-0.139 -0.101,0.102 0.252,0.232 v 0.371 c -0.038,-0.006 -0.069,-0.012 -0.107,-0.024 l 0.107,0.101 v 0.252 l -0.283,-0.265 v -0.321 c 0.063,0.02 0.126,0.038 0.195,0.058 l -0.195,-0.184 v -0.818 l 0.05,-0.051 -0.05,-0.051 v -0.226 l 0.283,0.263 z m 0,1.266 c 0.12,0.026 0.252,0.058 0.391,0.082 l 0.031,-0.188 c -0.12,-0.02 -0.239,-0.037 -0.353,-0.063 l 0.07,-0.074 -0.139,-0.127 v 0.37 z m 0,0.328 v -0.252 l 0.277,0.252 -0.132,0.132 -0.145,-0.132 z m 0.441,-1.184 v 0.226 l -0.076,-0.075 -0.126,0.133 0.202,0.188 v 0.228 l -0.441,-0.41 v -0.227 l 0.095,0.088 0.126,-0.132 -0.221,-0.202 v -0.227 l 0.441,0.41 z m 0,0.7 v -0.228 l 0.082,0.069 c 0,0.007 0.006,0.007 0.013,0 l 0.113,-0.113 v -0.013 l -0.208,-0.189 v -0.226 l 0.454,0.415 c 0.012,0.013 0.012,0.025 0,0.038 l -0.322,0.328 c -0.012,0.012 -0.025,0.012 -0.037,0 l -0.095,-0.081 z"
   id="path123"
   inkscape:connector-curvature="0" />
</g>




























































































</svg>