<?xml version="1.0" encoding="UTF-8" standalone="no"?>
<svg
   xmlns:dc="http://purl.org/dc/elements/1.1/"
   xmlns:cc="http://creativecommons.org/ns#"
   xmlns:rdf="http://www.w3.org/1999/02/22-rdf-syntax-ns#"
   xmlns:svg="http://www.w3.org/2000/svg"
   xmlns="http://www.w3.org/2000/svg"
   id="svg20"
   preserveAspectRatio="xMidYMid meet"
   viewBox="0 0 3253.000000 1193.000000"
   height="1193.000000pt"
   width="3253.000000pt"
   version="1.0">
  <defs
     id="defs24" />
  <metadata
     id="metadata2">
Created by potrace 1.16, written by Peter Selinger 2001-2019
<rdf:RDF>
  <cc:Work
     rdf:about="">
    <dc:format>image/svg+xml</dc:format>
    <dc:type
       rdf:resource="http://purl.org/dc/dcmitype/StillImage" />
  </cc:Work>
</rdf:RDF>
</metadata>
  <g
     id="g18"
     stroke="none"
     fill="#000000"
     transform="translate(0.000000,1193.000000) scale(0.100000,-0.100000)">
    <path
       id="path4"
       d="M4325 11845 c-146 -16 -275 -33 -335 -45 -25 -5 -85 -16 -135 -25 -741 -136 -1488 -505 -2080 -1026 -618 -545 -1044 -1184 -1310 -1964 -253 -746 -296 -1626 -116 -2420 300 -1329 1211 -2468 2441 -3053 195 -92 203 -96 311 -138 280 -108 612 -198 889 -243 152 -24 202 -31 325 -43 169 -17 671 -17 840 0 181 18 329 41 510 79 929 194 1797 698 2424 1408 341 385 629 847 809 1295 104 260 179 508 233 765 6 28 15 66 19 85 11 45 55 382 69 525 14 142 14 500 0 635 -27 271 -50 437 -80 580 -24 118 -29 138 -53 230 -57 217 -131 442 -201 605 -244 574 -574 1058 -1011 1485 -696 680 -1554 1102 -2524 1240 -290 41 -762 52 -1025 25z m677 -695 c163 -17 359 -41 403 -50 22 -5 67 -14 100 -20 211 -42 549 -148 724 -227 311 -139 546 -276 789 -460 769 -581 1295 -1444 1451 -2378 74 -443 75 -836 5 -1270 -126 -781 -502 -1509 -1068 -2070 -215 -213 -515 -447 -736 -573 -19 -11 -64 -36 -100 -57 -126 -72 -326 -165 -480 -223 -651 -246 -1331 -311 -2015 -191 -166 29 -204 38 -405 92 -251 69 -605 222 -855 370 -122 72 -317 201 -378 250 -256 207 -454 397 -608 584 -128 154 -140 170 -221 288 -578 843 -789 1856 -599 2875 109 582 379 1164 765 1650 126 158 424 456 582 582 394 314 882 568 1324 688 25 7 56 16 70 20 40 14 203 49 314 70 94 17 191 29 391 49 118 12 429 12 547 1z" />
    <path
       id="path6"
       d="M4515 9589 c-154 -28 -271 -66 -400 -130 -388 -190 -661 -541 -757 -969 -18 -82 -23 -135 -23 -245 0 -127 2 -144 24 -188 35 -71 103 -141 168 -173 51 -25 69 -28 153 -28 87 0 100 2 156 31 122 64 183 166 195 328 5 55 13 120 19 145 58 243 248 441 495 517 88 27 306 24 391 -5 186 -62 330 -182 414 -344 51 -97 68 -155 78 -255 14 -150 -7 -261 -74 -393 -51 -101 -121 -183 -209 -245 -125 -89 -218 -120 -436 -143 -55 -6 -103 -17 -130 -31 -66 -34 -134 -106 -166 -175 l-28 -61 -3 -498 c-2 -422 0 -505 13 -549 31 -105 98 -185 192 -230 39 -19 65 -23 143 -23 84 0 102 3 151 28 69 33 139 101 171 165 22 46 23 56 28 382 l5 334 80 29 c211 75 384 179 531 319 245 235 383 507 430 848 18 133 18 209 -1 346 -64 476 -353 879 -780 1086 -209 101 -378 138 -625 137 -85 -1 -177 -5 -205 -10z" />
    <path
       id="path8"
       d="M4620 5637 c-169 -48 -290 -184 -320 -360 -22 -127 25 -270 121 -369 88 -89 182 -128 313 -128 127 0 211 34 304 124 219 211 155 578 -125 708 -55 26 -80 31 -157 34 -55 3 -109 -1 -136 -9z" />
    <path
       id="path10"
       d="M9910 11764 c-91 -33 -151 -87 -201 -184 l-24 -45 0 -4205 0 -4205 28 -56 c32 -66 109 -142 172 -170 24 -11 73 -22 109 -26 140 -13 280 66 343 195 l28 57 5 1670 c6 1815 3 1709 61 1958 96 409 343 810 684 1107 410 358 841 531 1365 547 384 12 700 -52 1015 -206 228 -112 394 -231 588 -420 314 -306 498 -612 598 -996 67 -256 63 -140 69 -1980 6 -1916 -5 -1721 105 -1832 53 -53 71 -64 134 -84 131 -39 244 -14 342 77 62 59 93 112 108 182 15 70 15 3053 0 3267 -45 675 -278 1221 -737 1728 -432 479 -962 787 -1550 901 -217 42 -322 51 -592 50 -211 0 -279 -4 -395 -22 -608 -95 -1151 -373 -1700 -871 l-90 -82 -5 1703 -5 1703 -26 55 c-33 69 -93 131 -161 166 -68 35 -197 44 -268 18z" />
    <path
       id="path12"
       d="M23743 11766 c-126 -41 -212 -145 -233 -283 -7 -47 -10 -1363 -8 -4203 l3 -4135 23 -57 c31 -75 101 -150 177 -185 l60 -28 524 -3 c505 -3 527 -2 592 18 81 24 159 90 204 172 28 49 30 61 30 153 0 89 -3 106 -27 150 -32 62 -113 139 -176 168 -45 21 -62 22 -379 25 l-333 3 -2 3982 -3 3982 -22 47 c-30 66 -105 143 -171 175 -66 32 -190 42 -259 19z" />
    <path
       id="path14"
       d="M19225 9094 c-16 -2 -79 -9 -140 -15 -551 -55 -1059 -262 -1525 -622 -136 -105 -462 -432 -568 -569 -380 -491 -578 -998 -633 -1622 -17 -188 -6 -572 21 -751 100 -666 371 -1207 850 -1699 356 -365 761 -628 1200 -778 721 -246 1572 -217 2260 77 223 95 492 257 688 414 173 139 197 180 197 331 0 84 -3 102 -28 151 -31 63 -102 135 -168 171 -37 19 -59 23 -139 23 -118 0 -150 -14 -275 -115 -211 -172 -498 -333 -730 -409 -135 -44 -310 -83 -460 -102 -148 -19 -513 -17 -660 5 -545 78 -1003 315 -1396 722 -301 313 -513 704 -630 1160 -21 85 -39 159 -39 164 0 6 953 11 2633 12 l2632 3 56 26 c111 52 181 143 200 260 12 72 -2 345 -26 520 -73 528 -286 1025 -617 1441 -309 387 -683 695 -1093 898 -307 151 -582 234 -950 286 -104 14 -590 28 -660 18z m491 -695 c535 -52 1010 -273 1418 -660 290 -274 535 -677 654 -1074 22 -72 82 -313 82 -327 0 -5 -1084 -8 -2410 -8 -1325 0 -2410 4 -2410 8 0 4 15 71 34 148 108 439 317 840 591 1134 441 474 924 715 1565 783 80 9 374 6 476 -4z" />
    <path
       id="path16"
       d="M29005 9094 c-439 -45 -706 -112 -1040 -261 -354 -158 -708 -418 -1006 -739 -478 -514 -749 -1117 -809 -1804 -8 -88 -10 -964 -8 -2985 l3 -2860 24 -50 c33 -67 100 -131 169 -163 81 -38 202 -38 282 -1 94 44 158 114 193 211 9 25 13 462 17 1790 l5 1757 201 -192 c294 -281 510 -443 779 -583 626 -327 1386 -425 2115 -274 468 98 903 311 1296 637 124 102 375 357 478 485 259 323 462 727 561 1113 70 273 95 490 95 819 0 429 -65 789 -207 1146 -275 692 -853 1316 -1528 1650 -305 150 -591 236 -950 285 -115 16 -574 29 -670 19z m501 -695 c550 -54 1041 -288 1444 -689 245 -242 417 -492 536 -776 264 -632 243 -1417 -57 -2019 -185 -374 -497 -724 -864 -970 -118 -79 -383 -211 -510 -253 -449 -151 -959 -172 -1416 -57 -403 102 -751 301 -1073 615 -425 414 -653 867 -722 1430 -23 189 -15 554 15 725 91 510 308 922 681 1295 421 419 913 651 1495 703 93 8 370 6 471 -4z" />
  </g>
</svg>
